<svg width="154" height="36" viewBox="0 0 154 36" fill="none" xmlns="http://www.w3.org/2000/svg">
<path d="M0 1.86792C0 0.836297 0.836298 0 1.86792 0H18C19.0316 0 19.8679 0.836298 19.8679 1.86792V25.6415C19.8679 26.6731 19.0316 27.5094 18 27.5094H1.86793C0.836299 27.5094 0 26.6731 0 25.6415V1.86792Z" fill="#4285F4"/>
<rect x="22.2454" y="2.37744" width="9.50943" height="3.73585" rx="1.86792" fill="#34A853"/>
<rect x="16.1321" y="8.4906" width="19.8679" height="27.5094" rx="1.86792" fill="#EA4335"/>
<rect x="10.0188" y="29.8868" width="3.73585" height="3.73585" rx="1.86792" fill="#FBBC05"/>
<path d="M18.0002 10.3585V25.6415" stroke="white" stroke-width="3.73585" stroke-linecap="round"/>
<path d="M10.3589 18L25.6419 18" stroke="white" stroke-width="3.73585" stroke-linecap="round"/>
<path d="M54.16 25.352C53.3973 25.352 52.642 25.1907 51.894 24.868C51.146 24.5453 50.486 24.0687 49.914 23.438C49.342 22.8073 48.924 22.0227 48.66 21.084L50.442 20.358C50.6913 21.2673 51.146 22.03 51.806 22.646C52.466 23.262 53.2653 23.57 54.204 23.57C54.7907 23.57 55.326 23.4673 55.81 23.262C56.3087 23.042 56.7047 22.7267 56.998 22.316C57.306 21.9053 57.46 21.4067 57.46 20.82C57.46 20.0427 57.1667 19.4267 56.58 18.972C56.008 18.5027 55.1573 18.07 54.028 17.674L53.038 17.322C52.4513 17.102 51.8647 16.8233 51.278 16.486C50.6913 16.1487 50.2073 15.7087 49.826 15.166C49.4447 14.6087 49.254 13.912 49.254 13.076C49.254 12.3133 49.4593 11.6167 49.87 10.986C50.2807 10.3553 50.8453 9.84933 51.564 9.468C52.2827 9.08667 53.1113 8.896 54.05 8.896C55.0327 8.896 55.854 9.07933 56.514 9.446C57.1887 9.798 57.7167 10.2233 58.098 10.722C58.494 11.206 58.758 11.6533 58.89 12.064L57.152 12.812C57.064 12.504 56.8953 12.1887 56.646 11.866C56.3967 11.5287 56.0593 11.25 55.634 11.03C55.2233 10.7953 54.7027 10.678 54.072 10.678C53.5587 10.678 53.0747 10.7807 52.62 10.986C52.18 11.1913 51.8207 11.4773 51.542 11.844C51.278 12.196 51.146 12.6067 51.146 13.076C51.146 13.736 51.41 14.2567 51.938 14.638C52.466 15.0193 53.1773 15.364 54.072 15.672L55.106 16.024C55.5753 16.1853 56.052 16.3833 56.536 16.618C57.0347 16.8527 57.4967 17.1533 57.922 17.52C58.3473 17.8867 58.692 18.3413 58.956 18.884C59.22 19.412 59.352 20.05 59.352 20.798C59.352 21.6047 59.1907 22.3013 58.868 22.888C58.56 23.46 58.1493 23.9293 57.636 24.296C57.1227 24.6627 56.558 24.9267 55.942 25.088C55.3407 25.264 54.7467 25.352 54.16 25.352ZM61.6515 29.752V13.78H63.4335V15.452H63.5215C63.8295 14.924 64.3208 14.4547 64.9955 14.044C65.6702 13.6333 66.4548 13.428 67.3495 13.428C68.3762 13.428 69.2928 13.6847 70.0995 14.198C70.9062 14.7113 71.5442 15.4153 72.0135 16.31C72.4828 17.2047 72.7175 18.2313 72.7175 19.39C72.7175 20.5487 72.4828 21.5753 72.0135 22.47C71.5442 23.3647 70.9062 24.0687 70.0995 24.582C69.2928 25.0953 68.3762 25.352 67.3495 25.352C66.4548 25.352 65.6702 25.1467 64.9955 24.736C64.3208 24.3253 63.8295 23.8633 63.5215 23.35H63.4335L63.5215 24.89V29.752H61.6515ZM67.1515 23.658C67.7968 23.658 68.3982 23.4893 68.9555 23.152C69.5275 22.8 69.9822 22.3013 70.3195 21.656C70.6715 21.0107 70.8475 20.2553 70.8475 19.39C70.8475 18.51 70.6715 17.7547 70.3195 17.124C69.9822 16.4787 69.5275 15.9873 68.9555 15.65C68.3982 15.298 67.7968 15.122 67.1515 15.122C66.5062 15.122 65.8975 15.298 65.3255 15.65C64.7682 15.9873 64.3135 16.4787 63.9615 17.124C63.6095 17.7547 63.4335 18.51 63.4335 19.39C63.4335 20.27 63.6095 21.0327 63.9615 21.678C64.3135 22.3087 64.7682 22.8 65.3255 23.152C65.8975 23.4893 66.5062 23.658 67.1515 23.658ZM79.882 25.352C78.7966 25.352 77.8286 25.0953 76.978 24.582C76.142 24.0687 75.482 23.3647 74.998 22.47C74.5286 21.5753 74.294 20.556 74.294 19.412C74.294 18.3413 74.514 17.3513 74.954 16.442C75.4086 15.5327 76.0393 14.8067 76.846 14.264C77.6673 13.7067 78.628 13.428 79.728 13.428C80.8426 13.428 81.796 13.6773 82.588 14.176C83.3946 14.66 84.0106 15.3347 84.436 16.2C84.876 17.0653 85.096 18.0553 85.096 19.17C85.096 19.2727 85.0886 19.3753 85.074 19.478C85.074 19.5807 85.0666 19.6687 85.052 19.742H76.164C76.2226 20.622 76.4353 21.3553 76.802 21.942C77.1833 22.514 77.6526 22.9467 78.21 23.24C78.7673 23.5187 79.3466 23.658 79.948 23.658C80.7693 23.658 81.444 23.4673 81.972 23.086C82.5146 22.69 82.9473 22.206 83.27 21.634L84.854 22.404C84.414 23.2547 83.7833 23.9587 82.962 24.516C82.1406 25.0733 81.114 25.352 79.882 25.352ZM79.728 15.122C78.8186 15.122 78.0633 15.408 77.462 15.98C76.8606 16.552 76.4646 17.2927 76.274 18.202H83.116C83.1013 17.7767 82.9766 17.3293 82.742 16.86C82.522 16.376 82.17 15.9653 81.686 15.628C81.202 15.2907 80.5493 15.122 79.728 15.122ZM92.4739 25.352C91.3739 25.352 90.3912 25.0953 89.5259 24.582C88.6752 24.054 88.0079 23.3427 87.5239 22.448C87.0399 21.5387 86.7979 20.5193 86.7979 19.39C86.7979 18.246 87.0399 17.2267 87.5239 16.332C88.0079 15.4373 88.6752 14.7333 89.5259 14.22C90.3912 13.692 91.3739 13.428 92.4739 13.428C93.7352 13.428 94.7692 13.7213 95.5759 14.308C96.3972 14.88 96.9765 15.6207 97.3139 16.53L95.6199 17.234C95.3412 16.5447 94.9232 16.024 94.3659 15.672C93.8232 15.3053 93.1632 15.122 92.3859 15.122C91.7259 15.122 91.1099 15.298 90.5379 15.65C89.9805 16.002 89.5259 16.5007 89.1739 17.146C88.8219 17.7767 88.6459 18.5247 88.6459 19.39C88.6459 20.2407 88.8219 20.9887 89.1739 21.634C89.5259 22.2793 89.9805 22.778 90.5379 23.13C91.1099 23.482 91.7259 23.658 92.3859 23.658C93.1779 23.658 93.8599 23.4747 94.4319 23.108C95.0039 22.7413 95.4292 22.2207 95.7079 21.546L97.3799 22.25C97.0132 23.1153 96.4192 23.8487 95.5979 24.45C94.7765 25.0513 93.7352 25.352 92.4739 25.352ZM104.889 25V9.248H107.595L112.611 22.162H112.699L117.715 9.248H120.421V25H118.573V14.99L118.661 11.998H118.573L113.425 25H111.885L106.737 11.998H106.649L106.737 14.99V25H104.889ZM126.835 25.352C125.999 25.352 125.266 25.1907 124.635 24.868C124.005 24.5453 123.506 24.1053 123.139 23.548C122.787 22.976 122.611 22.3307 122.611 21.612C122.611 20.7907 122.824 20.1013 123.249 19.544C123.675 18.972 124.247 18.5467 124.965 18.268C125.684 17.9747 126.476 17.828 127.341 17.828C128.089 17.828 128.749 17.9087 129.321 18.07C129.893 18.2313 130.304 18.3927 130.553 18.554V17.872C130.553 17.0213 130.253 16.3467 129.651 15.848C129.05 15.3493 128.317 15.1 127.451 15.1C126.835 15.1 126.256 15.2393 125.713 15.518C125.185 15.782 124.767 16.156 124.459 16.64L123.051 15.584C123.491 14.924 124.093 14.4033 124.855 14.022C125.633 13.626 126.498 13.428 127.451 13.428C128.977 13.428 130.172 13.8313 131.037 14.638C131.903 15.4447 132.335 16.53 132.335 17.894V25H130.553V23.394H130.465C130.172 23.8927 129.71 24.3473 129.079 24.758C128.449 25.154 127.701 25.352 126.835 25.352ZM127.011 23.702C127.657 23.702 128.243 23.5407 128.771 23.218C129.314 22.8953 129.747 22.4627 130.069 21.92C130.392 21.3773 130.553 20.7833 130.553 20.138C130.216 19.9033 129.791 19.7127 129.277 19.566C128.779 19.4193 128.229 19.346 127.627 19.346C126.557 19.346 125.772 19.566 125.273 20.006C124.775 20.446 124.525 20.9887 124.525 21.634C124.525 22.25 124.76 22.7487 125.229 23.13C125.699 23.5113 126.293 23.702 127.011 23.702ZM139.034 25.176C138.095 25.176 137.34 24.9047 136.768 24.362C136.196 23.8047 135.91 23.0347 135.91 22.052V15.474H133.952V13.78H135.91V10.612H137.78V13.78H140.53V15.474H137.78V21.59C137.78 22.1767 137.897 22.6313 138.132 22.954C138.381 23.2767 138.785 23.438 139.342 23.438C139.591 23.438 139.819 23.4013 140.024 23.328C140.229 23.2547 140.413 23.1667 140.574 23.064V24.89C140.383 24.978 140.171 25.044 139.936 25.088C139.716 25.1467 139.415 25.176 139.034 25.176ZM142.886 25V9.248H144.756V13.89L144.668 15.43H144.756C145.049 14.8727 145.526 14.4033 146.186 14.022C146.861 13.626 147.601 13.428 148.408 13.428C149.831 13.428 150.887 13.846 151.576 14.682C152.265 15.5033 152.61 16.5447 152.61 17.806V25H150.74V18.092C150.74 17.0067 150.461 16.244 149.904 15.804C149.361 15.3493 148.716 15.122 147.968 15.122C147.352 15.122 146.802 15.298 146.318 15.65C145.834 16.002 145.453 16.4567 145.174 17.014C144.895 17.5713 144.756 18.1507 144.756 18.752V25H142.886Z" fill="#5F6368"/>
</svg>
