<svg width="642" height="212" viewBox="0 0 642 212" fill="none" xmlns="http://www.w3.org/2000/svg">
<path d="M567.697 149.85C569.81 149.85 570.831 147.874 570.831 146.082C570.831 144.29 569.841 142.267 567.697 142.267C565.462 142.267 564.475 144.29 564.475 146.082C564.475 147.874 565.493 149.85 567.697 149.85ZM574.898 150.682C574.898 151.637 574.898 153.124 572.948 153.124C571.758 153.124 571.282 152.522 570.997 151.537C569.956 152.679 568.683 153.276 567.126 153.276C563.319 153.276 560.41 150.286 560.41 146.082C560.41 141.976 563.403 138.833 567.126 138.833C568.624 138.833 570.092 139.376 570.997 140.545C571.109 139.636 571.962 138.989 572.948 138.989C574.898 138.989 574.898 140.472 574.898 141.436V150.682Z" fill="#FC4C02"/>
<path d="M583.302 149.848C585.414 149.848 586.46 147.821 586.46 146.082C586.46 144.318 585.413 142.265 583.302 142.265C581.12 142.265 580.109 144.132 580.109 145.951C580.109 147.771 581.064 149.848 583.302 149.848ZM576.042 141.069C576.042 139.824 576.885 138.989 578.073 138.989C579.196 138.989 579.852 139.565 580.109 140.545C580.868 139.404 582.451 138.833 583.98 138.833C588.347 138.833 590.523 142.6 590.523 146.235C590.523 149.77 587.933 153.276 583.837 153.276C582.557 153.276 581.181 152.832 580.11 151.976V156.548C580.11 157.792 579.262 158.623 578.074 158.623C576.885 158.623 576.043 157.792 576.043 156.548V141.069H576.042Z" fill="#FC4C02"/>
<path d="M591.485 141.069C591.485 139.824 592.33 138.989 593.518 138.989C594.703 138.989 595.551 139.824 595.551 141.069V151.039C595.551 152.29 594.703 153.124 593.518 153.124C592.33 153.124 591.485 152.29 591.485 151.039V141.069ZM595.808 135.432C595.808 136.605 594.789 137.587 593.517 137.587C592.301 137.587 591.229 136.575 591.229 135.432C591.229 134.367 592.301 133.377 593.517 133.377C594.731 133.377 595.808 134.343 595.808 135.432Z" fill="#FC4C02"/>
<path d="M603.739 142.267C601.617 142.267 600.577 144.29 600.577 146.025C600.577 148.027 601.618 149.85 603.739 149.85C605.913 149.85 606.929 147.978 606.929 146.16C606.929 144.342 605.969 142.267 603.739 142.267ZM610.994 151.877C610.994 156.37 607.802 158.623 603.179 158.623C601.509 158.623 596.764 157.872 596.764 155.824C596.764 155.115 597.61 154.18 598.403 154.18C599.7 154.18 601.138 155.356 603.488 155.356C605.46 155.356 606.93 154.292 606.93 152.392V151.512H606.876C606.02 152.657 604.644 153.275 602.774 153.275C598.517 153.275 596.51 149.82 596.51 146.103C596.51 142.339 599.109 138.832 603.204 138.832C604.588 138.832 606.167 139.404 606.929 140.544C607.185 139.563 607.831 138.988 608.963 138.988C610.152 138.988 610.994 139.823 610.994 141.07V151.877Z" fill="#4A494A"/>
<path d="M622.26 144.813C622.036 143.173 620.908 141.955 619.016 141.955C617.209 141.955 615.988 143.223 615.792 144.813H622.26ZM615.881 147.306C616.162 149.145 617.831 150.004 619.718 150.004C621.811 150.004 623.249 148.497 624.322 148.497C625.199 148.497 625.991 149.301 625.991 150.109C625.991 151.716 622.375 153.275 619.352 153.275C614.776 153.275 611.729 150.21 611.729 146.08C611.729 142.292 614.72 138.833 619.017 138.833C623.419 138.833 626.328 142.522 626.328 145.638C626.328 146.758 625.791 147.305 624.546 147.305H615.881V147.306Z" fill="#4A494A"/>
<path d="M637.516 144.859C637.295 143.221 636.161 142 634.27 142C632.461 142 631.245 143.272 631.052 144.859H637.516ZM631.138 147.352C631.422 149.202 633.083 150.054 634.978 150.054C637.063 150.054 638.505 148.545 639.577 148.545C640.455 148.545 641.245 149.349 641.245 150.154C641.245 151.764 637.629 153.324 634.613 153.324C630.035 153.324 626.985 150.257 626.985 146.129C626.985 142.333 629.98 138.882 634.27 138.882C638.676 138.882 641.59 142.569 641.59 145.686C641.59 146.807 641.053 147.351 639.8 147.351H631.138V147.352Z" fill="#4A494A"/>
<path d="M262.064 59.12C266.192 59.12 269.672 59.96 272.504 61.64C275.336 63.32 277.736 65.72 279.704 68.84C280.28 69.752 280.568 70.616 280.568 71.432C280.568 72.488 280.088 73.352 279.128 74.024C278.6 74.36 277.976 74.528 277.256 74.528C276.536 74.528 275.864 74.36 275.24 74.024C274.616 73.64 274.136 73.136 273.8 72.512C272.504 70.352 270.872 68.72 268.904 67.616C266.984 66.464 264.536 65.888 261.56 65.888C257.912 65.888 254.96 66.608 252.704 68.048C250.448 69.44 249.32 71.48 249.32 74.168C249.32 76.664 250.328 78.752 252.344 80.432C254.36 82.112 257.96 83.216 263.144 83.744C268.904 84.32 273.368 86.072 276.536 89C279.704 91.88 281.288 95.696 281.288 100.448C281.288 103.904 280.352 106.88 278.48 109.376C276.608 111.824 274.112 113.672 270.992 114.92C267.92 116.12 264.608 116.72 261.056 116.72C256.4 116.72 252.152 115.664 248.312 113.552C244.52 111.44 241.904 108.68 240.464 105.272C240.224 104.696 240.104 104.216 240.104 103.832C240.104 103.112 240.368 102.488 240.896 101.96C241.424 101.384 242.144 101 243.056 100.808C243.2 100.76 243.44 100.736 243.776 100.736C244.544 100.736 245.264 100.976 245.936 101.456C246.656 101.888 247.184 102.488 247.52 103.256C248.384 105.128 250.088 106.712 252.632 108.008C255.176 109.304 257.984 109.952 261.056 109.952C264.656 109.952 267.704 109.136 270.2 107.504C272.696 105.824 273.944 103.544 273.944 100.664C273.944 97.928 272.888 95.6 270.776 93.68C268.664 91.712 265.448 90.512 261.128 90.08C255.176 89.504 250.496 87.776 247.088 84.896C243.68 81.968 241.976 78.32 241.976 73.952C241.976 70.88 242.84 68.24 244.568 66.032C246.344 63.776 248.744 62.072 251.768 60.92C254.84 59.72 258.272 59.12 262.064 59.12ZM311.85 76.328C315.546 76.328 318.906 77.216 321.93 78.992C325.002 80.72 327.402 83.12 329.13 86.192C330.858 89.216 331.722 92.6 331.722 96.344C331.722 100.088 330.906 103.496 329.274 106.568C327.69 109.592 325.482 111.968 322.65 113.696C319.866 115.424 316.746 116.288 313.29 116.288C310.506 116.288 307.914 115.712 305.514 114.56C303.114 113.408 301.074 111.8 299.394 109.736V129.176C299.394 130.28 299.058 131.168 298.386 131.84C297.714 132.512 296.826 132.848 295.722 132.848C294.666 132.848 293.778 132.512 293.058 131.84C292.386 131.168 292.05 130.28 292.05 129.176V96.344C292.05 92.6 292.914 89.216 294.642 86.192C296.418 83.12 298.794 80.72 301.77 78.992C304.794 77.216 308.154 76.328 311.85 76.328ZM311.85 109.808C314.25 109.808 316.41 109.232 318.33 108.08C320.298 106.88 321.834 105.272 322.938 103.256C324.09 101.192 324.666 98.888 324.666 96.344C324.666 93.8 324.09 91.496 322.938 89.432C321.834 87.368 320.298 85.76 318.33 84.608C316.41 83.408 314.25 82.808 311.85 82.808C309.45 82.808 307.266 83.408 305.298 84.608C303.378 85.76 301.866 87.368 300.762 89.432C299.658 91.496 299.106 93.8 299.106 96.344C299.106 98.888 299.658 101.192 300.762 103.256C301.866 105.272 303.378 106.88 305.298 108.08C307.266 109.232 309.45 109.808 311.85 109.808ZM378.027 95.696C378.027 96.608 377.715 97.376 377.091 98C376.467 98.576 375.675 98.864 374.715 98.864H347.355C347.883 102.224 349.395 104.936 351.891 107C354.435 109.064 357.531 110.096 361.179 110.096C362.619 110.096 364.107 109.832 365.643 109.304C367.227 108.776 368.523 108.128 369.531 107.36C370.203 106.832 370.995 106.568 371.907 106.568C372.819 106.568 373.539 106.808 374.067 107.288C374.931 108.008 375.363 108.824 375.363 109.736C375.363 110.6 374.979 111.32 374.211 111.896C372.579 113.192 370.539 114.248 368.091 115.064C365.691 115.88 363.387 116.288 361.179 116.288C357.243 116.288 353.715 115.448 350.595 113.768C347.475 112.04 345.027 109.664 343.251 106.64C341.523 103.616 340.659 100.184 340.659 96.344C340.659 92.504 341.475 89.072 343.107 86.048C344.787 82.976 347.091 80.6 350.019 78.92C352.995 77.192 356.355 76.328 360.099 76.328C363.795 76.328 366.987 77.144 369.675 78.776C372.363 80.408 374.427 82.688 375.867 85.616C377.307 88.544 378.027 91.904 378.027 95.696ZM360.099 82.52C356.595 82.52 353.739 83.48 351.531 85.4C349.371 87.32 348.003 89.888 347.427 93.104H371.403C370.971 89.888 369.771 87.32 367.803 85.4C365.835 83.48 363.267 82.52 360.099 82.52ZM403.484 76.328C409.148 76.328 413.852 78.488 417.596 82.808C418.076 83.336 418.316 83.96 418.316 84.68C418.316 85.736 417.788 86.624 416.732 87.344C416.252 87.68 415.7 87.848 415.076 87.848C413.972 87.848 413.036 87.416 412.268 86.552C411.068 85.256 409.748 84.32 408.308 83.744C406.916 83.12 405.308 82.808 403.484 82.808C399.788 82.808 396.788 84.056 394.484 86.552C392.18 89 391.028 92.264 391.028 96.344C391.028 98.936 391.556 101.264 392.612 103.328C393.716 105.344 395.228 106.928 397.148 108.08C399.116 109.232 401.348 109.808 403.844 109.808C407.108 109.808 409.748 108.968 411.764 107.288C412.676 106.616 413.564 106.28 414.428 106.28C415.1 106.28 415.724 106.496 416.3 106.928C417.212 107.696 417.668 108.56 417.668 109.52C417.668 110.24 417.38 110.888 416.804 111.464C413.348 114.68 409.028 116.288 403.844 116.288C400.052 116.288 396.644 115.424 393.62 113.696C390.596 111.968 388.22 109.592 386.492 106.568C384.812 103.496 383.972 100.088 383.972 96.344C383.972 92.504 384.788 89.072 386.42 86.048C388.1 82.976 390.428 80.6 393.404 78.92C396.38 77.192 399.74 76.328 403.484 76.328ZM503.604 59.768C504.66 59.768 505.548 60.128 506.268 60.848C506.988 61.568 507.348 62.456 507.348 63.512V112.256C507.348 113.312 506.964 114.2 506.196 114.92C505.476 115.64 504.612 116 503.604 116C502.548 116 501.66 115.64 500.94 114.92C500.22 114.2 499.86 113.312 499.86 112.256V76.472L482.436 111.968C481.62 113.216 480.54 113.84 479.196 113.84C477.612 113.84 476.46 113.096 475.74 111.608L458.532 77.12V112.256C458.532 113.312 458.172 114.2 457.452 114.92C456.732 115.64 455.844 116 454.788 116C453.732 116 452.844 115.64 452.124 114.92C451.404 114.2 451.044 113.312 451.044 112.256V63.512C451.044 62.456 451.404 61.568 452.124 60.848C452.844 60.128 453.732 59.768 454.788 59.768C456.228 59.768 457.332 60.44 458.1 61.784L479.484 104.624L500.292 61.784C501.06 60.44 502.164 59.768 503.604 59.768ZM538.914 76.328C542.61 76.328 545.946 77.216 548.922 78.992C551.946 80.72 554.322 83.12 556.05 86.192C557.826 89.216 558.714 92.6 558.714 96.344V112.4C558.714 113.456 558.354 114.344 557.634 115.064C556.962 115.736 556.098 116.072 555.042 116.072C553.986 116.072 553.098 115.736 552.378 115.064C551.706 114.344 551.37 113.456 551.37 112.4V109.736C549.69 111.8 547.65 113.408 545.25 114.56C542.85 115.712 540.258 116.288 537.474 116.288C534.018 116.288 530.874 115.424 528.042 113.696C525.258 111.968 523.05 109.592 521.418 106.568C519.834 103.496 519.042 100.088 519.042 96.344C519.042 92.6 519.906 89.216 521.634 86.192C523.362 83.12 525.738 80.72 528.762 78.992C531.834 77.216 535.218 76.328 538.914 76.328ZM538.914 109.808C541.314 109.808 543.474 109.232 545.394 108.08C547.362 106.88 548.898 105.272 550.002 103.256C551.106 101.192 551.658 98.888 551.658 96.344C551.658 93.8 551.106 91.496 550.002 89.432C548.898 87.368 547.362 85.76 545.394 84.608C543.474 83.408 541.314 82.808 538.914 82.808C536.514 82.808 534.33 83.408 532.362 84.608C530.442 85.76 528.906 87.368 527.754 89.432C526.65 91.496 526.098 93.8 526.098 96.344C526.098 98.888 526.65 101.192 527.754 103.256C528.906 105.272 530.442 106.88 532.362 108.08C534.33 109.232 536.514 109.808 538.914 109.808ZM586.42 108.8C587.284 108.8 588.004 109.136 588.58 109.808C589.204 110.48 589.516 111.344 589.516 112.4C589.516 113.456 589.108 114.32 588.292 114.992C587.524 115.664 586.516 116 585.268 116H583.972C581.62 116 579.46 115.4 577.492 114.2C575.572 112.952 574.06 111.272 572.956 109.16C571.852 107.048 571.3 104.672 571.3 102.032V84.248H567.988C566.98 84.248 566.164 83.96 565.54 83.384C564.916 82.808 564.604 82.088 564.604 81.224C564.604 80.264 564.916 79.496 565.54 78.92C566.164 78.344 566.98 78.056 567.988 78.056H571.3V67.688C571.3 66.632 571.636 65.768 572.308 65.096C572.98 64.424 573.844 64.088 574.9 64.088C575.956 64.088 576.82 64.424 577.492 65.096C578.164 65.768 578.5 66.632 578.5 67.688V78.056H584.62C585.628 78.056 586.444 78.344 587.068 78.92C587.692 79.496 588.004 80.264 588.004 81.224C588.004 82.088 587.692 82.808 587.068 83.384C586.444 83.96 585.628 84.248 584.62 84.248H578.5V102.032C578.5 103.952 579.028 105.56 580.084 106.856C581.14 108.152 582.436 108.8 583.972 108.8H586.42ZM618.127 76.256C621.439 76.256 624.415 76.976 627.055 78.416C629.695 79.856 631.759 81.968 633.247 84.752C634.735 87.488 635.479 90.8 635.479 94.688V112.4C635.479 113.456 635.119 114.344 634.398 115.064C633.727 115.736 632.863 116.072 631.807 116.072C630.751 116.072 629.863 115.736 629.143 115.064C628.471 114.344 628.135 113.456 628.135 112.4V94.688C628.135 90.8 627.079 87.872 624.967 85.904C622.903 83.888 620.143 82.88 616.687 82.88C614.671 82.88 612.823 83.288 611.143 84.104C609.511 84.92 608.215 86.024 607.255 87.416C606.343 88.808 605.887 90.368 605.887 92.096V112.4C605.887 113.456 605.551 114.344 604.879 115.064C604.207 115.736 603.319 116.072 602.215 116.072C601.159 116.072 600.271 115.736 599.551 115.064C598.879 114.344 598.543 113.456 598.543 112.4V63.44C598.543 62.336 598.879 61.448 599.551 60.776C600.271 60.104 601.159 59.768 602.215 59.768C603.319 59.768 604.207 60.104 604.879 60.776C605.551 61.448 605.887 62.336 605.887 63.44V81.08C607.423 79.544 609.247 78.368 611.359 77.552C613.471 76.688 615.727 76.256 618.127 76.256Z" fill="#4A494A"/>
<path d="M272.504 61.64L273.524 59.9199V59.9199L272.504 61.64ZM279.704 68.84L278.012 69.907L278.013 69.908L279.704 68.84ZM279.128 74.024L280.202 75.7113L280.239 75.6877L280.275 75.6625L279.128 74.024ZM275.24 74.024L274.192 75.7273L274.241 75.7576L274.292 75.7849L275.24 74.024ZM273.8 72.512L275.561 71.5638L275.539 71.5229L275.515 71.483L273.8 72.512ZM268.904 67.616L267.875 69.331L267.9 69.346L267.925 69.3603L268.904 67.616ZM252.704 68.048L253.754 69.7501L253.767 69.7421L253.78 69.7338L252.704 68.048ZM252.344 80.432L251.064 81.9684L252.344 80.432ZM263.144 83.744L262.941 85.7337L262.945 85.7341L263.144 83.744ZM276.536 89L275.179 90.4688L275.185 90.4743L275.191 90.4799L276.536 89ZM278.48 109.376L280.069 110.591L280.074 110.583L280.08 110.576L278.48 109.376ZM270.992 114.92L271.72 116.783L271.727 116.78L271.735 116.777L270.992 114.92ZM248.312 113.552L247.339 115.299L247.348 115.304L248.312 113.552ZM240.464 105.272L238.618 106.041L238.622 106.05L240.464 105.272ZM240.896 101.96L242.31 103.374L242.341 103.343L242.37 103.311L240.896 101.96ZM243.056 100.808L243.468 102.765L243.58 102.742L243.688 102.705L243.056 100.808ZM245.936 101.456L244.774 103.083L244.839 103.13L244.907 103.171L245.936 101.456ZM247.52 103.256L245.688 104.058L245.696 104.076L245.704 104.094L247.52 103.256ZM270.2 107.504L271.294 109.178L271.306 109.171L271.317 109.163L270.2 107.504ZM270.776 93.68L269.413 95.1432L269.422 95.1516L269.431 95.1599L270.776 93.68ZM261.128 90.08L261.327 88.0899L261.321 88.0893L261.128 90.08ZM247.088 84.896L245.785 86.413L245.791 86.4183L245.797 86.4236L247.088 84.896ZM244.568 66.032L242.997 64.7949L242.993 64.7994L244.568 66.032ZM251.768 60.92L252.48 62.789L252.488 62.786L252.496 62.7829L251.768 60.92ZM262.064 61.12C265.923 61.12 269.03 61.9044 271.484 63.3601L273.524 59.9199C270.314 58.0156 266.461 57.12 262.064 57.12V61.12ZM271.484 63.3601C274.012 64.86 276.193 67.0222 278.012 69.907L281.396 67.773C279.279 64.4178 276.66 61.78 273.524 59.9199L271.484 63.3601ZM278.013 69.908C278.451 70.6009 278.568 71.0976 278.568 71.432H282.568C282.568 70.1344 282.109 68.9031 281.395 67.772L278.013 69.908ZM278.568 71.432C278.568 71.7561 278.475 72.0399 277.981 72.3855L280.275 75.6625C281.701 74.6641 282.568 73.2199 282.568 71.432H278.568ZM278.054 72.3367C277.893 72.4392 277.654 72.528 277.256 72.528V76.528C278.298 76.528 279.307 76.2808 280.202 75.7113L278.054 72.3367ZM277.256 72.528C276.861 72.528 276.516 72.4396 276.188 72.2631L274.292 75.7849C275.212 76.2804 276.211 76.528 277.256 76.528V72.528ZM276.288 72.3207C275.954 72.1147 275.724 71.867 275.561 71.5638L272.039 73.4602C272.548 74.405 273.278 75.1653 274.192 75.7273L276.288 72.3207ZM275.515 71.483C274.061 69.06 272.188 67.1652 269.883 65.8717L267.925 69.3603C269.556 70.2748 270.947 71.644 272.085 73.541L275.515 71.483ZM269.933 65.901C267.616 64.5108 264.783 63.888 261.56 63.888V67.888C264.289 67.888 266.352 68.4172 267.875 69.331L269.933 65.901ZM261.56 63.888C257.665 63.888 254.302 64.6552 251.628 66.3622L253.78 69.7338C255.618 68.5608 258.159 67.888 261.56 67.888V63.888ZM251.654 66.3459C248.797 68.1084 247.32 70.7982 247.32 74.168H251.32C251.32 72.1618 252.099 70.7716 253.754 69.7501L251.654 66.3459ZM247.32 74.168C247.32 77.2917 248.619 79.9308 251.064 81.9684L253.624 78.8956C252.037 77.5732 251.32 76.0363 251.32 74.168H247.32ZM251.064 81.9684C253.565 84.0532 257.685 85.1984 262.941 85.7337L263.347 81.7543C258.235 81.2336 255.155 80.1708 253.624 78.8956L251.064 81.9684ZM262.945 85.7341C268.419 86.2815 272.423 87.9222 275.179 90.4688L277.893 87.5312C274.313 84.2218 269.389 82.3585 263.343 81.7539L262.945 85.7341ZM275.191 90.4799C277.893 92.9368 279.288 96.1906 279.288 100.448H283.288C283.288 95.2014 281.515 90.8232 277.881 87.5201L275.191 90.4799ZM279.288 100.448C279.288 103.52 278.464 106.064 276.88 108.176L280.08 110.576C282.24 107.696 283.288 104.288 283.288 100.448H279.288ZM276.891 108.161C275.258 110.297 273.066 111.936 270.249 113.063L271.735 116.777C275.158 115.408 277.958 113.351 280.069 110.591L276.891 108.161ZM270.264 113.057C267.442 114.16 264.378 114.72 261.056 114.72V118.72C264.838 118.72 268.398 118.08 271.72 116.783L270.264 113.057ZM261.056 114.72C256.715 114.72 252.802 113.739 249.276 111.8L247.348 115.304C251.502 117.589 256.085 118.72 261.056 118.72V114.72ZM249.285 111.805C245.813 109.871 243.544 107.422 242.306 104.494L238.622 106.05C240.264 109.938 243.227 113.009 247.339 115.299L249.285 111.805ZM242.31 104.503C242.219 104.284 242.165 104.117 242.134 103.995C242.103 103.871 242.104 103.821 242.104 103.832H238.104C238.104 104.594 238.332 105.355 238.618 106.041L242.31 104.503ZM242.104 103.832C242.104 103.664 242.142 103.543 242.31 103.374L239.482 100.546C238.594 101.433 238.104 102.56 238.104 103.832H242.104ZM242.37 103.311C242.565 103.099 242.884 102.888 243.468 102.765L242.644 98.8509C241.404 99.1119 240.283 99.669 239.422 100.609L242.37 103.311ZM243.688 102.705C243.652 102.718 243.621 102.726 243.6 102.731C243.577 102.737 243.561 102.74 243.551 102.742C243.531 102.746 243.527 102.746 243.543 102.744C243.558 102.743 243.585 102.74 243.625 102.739C243.665 102.737 243.715 102.736 243.776 102.736V98.736C243.421 98.736 242.899 98.7523 242.424 98.9106L243.688 102.705ZM243.776 102.736C244.095 102.736 244.414 102.826 244.774 103.083L247.098 99.8285C246.114 99.1255 244.993 98.736 243.776 98.736V102.736ZM244.907 103.171C245.272 103.39 245.518 103.671 245.688 104.058L249.352 102.454C248.85 101.305 248.04 100.386 246.965 99.741L244.907 103.171ZM245.704 104.094C246.817 106.505 248.932 108.368 251.724 109.79L253.54 106.226C251.244 105.056 249.951 103.751 249.336 102.418L245.704 104.094ZM251.724 109.79C254.57 111.24 257.693 111.952 261.056 111.952V107.952C258.275 107.952 255.782 107.368 253.54 106.226L251.724 109.79ZM261.056 111.952C264.963 111.952 268.411 111.063 271.294 109.178L269.106 105.83C266.997 107.209 264.349 107.952 261.056 107.952V111.952ZM271.317 109.163C274.335 107.131 275.944 104.244 275.944 100.664H271.944C271.944 102.844 271.057 104.517 269.083 105.845L271.317 109.163ZM275.944 100.664C275.944 97.3375 274.63 94.4806 272.121 92.2001L269.431 95.1599C271.146 96.7194 271.944 98.5185 271.944 100.664H275.944ZM272.139 92.2168C269.582 89.8337 265.874 88.5446 261.327 88.0899L260.929 92.0701C265.022 92.4794 267.746 93.5903 269.413 95.1432L272.139 92.2168ZM261.321 88.0893C255.638 87.5394 251.387 85.9102 248.379 83.3684L245.797 86.4236C249.605 89.6418 254.714 91.4686 260.935 92.0707L261.321 88.0893ZM248.391 83.379C245.411 80.8185 243.976 77.7181 243.976 73.952H239.976C239.976 78.9219 241.949 83.1175 245.785 86.413L248.391 83.379ZM243.976 73.952C243.976 71.2814 244.717 69.0866 246.143 67.2646L242.993 64.7994C240.963 67.3934 239.976 70.4786 239.976 73.952H243.976ZM246.139 67.2691C247.664 65.3325 249.75 63.8288 252.48 62.789L251.056 59.051C247.738 60.3152 245.024 62.2195 242.997 64.7949L246.139 67.2691ZM252.496 62.7829C255.304 61.686 258.484 61.12 262.064 61.12V57.12C258.06 57.12 254.376 57.754 251.04 59.0571L252.496 62.7829ZM321.93 78.992L320.917 80.7166L320.934 80.726L320.95 80.7352L321.93 78.992ZM329.13 86.192L327.387 87.1725L327.394 87.1843L329.13 86.192ZM329.274 106.568L327.508 105.63L327.503 105.64L329.274 106.568ZM322.65 113.696L321.609 111.989L321.602 111.993L321.596 111.997L322.65 113.696ZM305.514 114.56L304.649 116.363L305.514 114.56ZM299.394 109.736L300.945 108.473L297.394 104.111V109.736H299.394ZM293.058 131.84L291.644 133.254L291.668 133.279L291.694 133.302L293.058 131.84ZM294.642 86.192L292.911 85.191L292.906 85.1997L294.642 86.192ZM301.77 78.992L302.775 80.7216L302.783 80.7166L301.77 78.992ZM318.33 108.08L319.359 109.795L319.365 109.791L319.372 109.788L318.33 108.08ZM322.938 103.256L321.192 102.281L321.188 102.288L321.184 102.295L322.938 103.256ZM322.938 89.432L321.175 90.3753L321.183 90.3911L321.192 90.4067L322.938 89.432ZM318.33 84.608L317.27 86.304L317.295 86.3194L317.32 86.334L318.33 84.608ZM305.298 84.608L306.327 86.323L306.333 86.3193L306.34 86.3156L305.298 84.608ZM300.762 103.256L298.999 104.199L299.003 104.208L299.008 104.217L300.762 103.256ZM305.298 108.08L304.238 109.776L304.263 109.791L304.288 109.806L305.298 108.08ZM311.85 78.328C315.21 78.328 318.217 79.1308 320.917 80.7166L322.943 77.2674C319.595 75.3012 315.882 74.328 311.85 74.328V78.328ZM320.95 80.7352C323.703 82.2836 325.839 84.4198 327.387 87.1725L330.873 85.2115C328.966 81.8202 326.302 79.1564 322.911 77.2488L320.95 80.7352ZM327.394 87.1843C328.936 89.8835 329.722 92.9211 329.722 96.344H333.722C333.722 92.2789 332.78 88.5485 330.867 85.1997L327.394 87.1843ZM329.722 96.344C329.722 99.7864 328.975 102.868 327.508 105.63L331.041 107.506C332.838 104.124 333.722 100.39 333.722 96.344H329.722ZM327.503 105.64C326.082 108.353 324.122 110.455 321.609 111.989L323.692 115.403C326.843 113.481 329.299 110.831 331.046 107.496L327.503 105.64ZM321.596 111.997C319.146 113.517 316.395 114.288 313.29 114.288V118.288C317.098 118.288 320.587 117.331 323.705 115.395L321.596 111.997ZM313.29 114.288C310.792 114.288 308.497 113.773 306.38 112.757L304.649 116.363C307.331 117.651 310.221 118.288 313.29 118.288V114.288ZM306.38 112.757C304.245 111.732 302.439 110.309 300.945 108.473L297.843 110.999C299.709 113.291 301.983 115.084 304.649 116.363L306.38 112.757ZM297.394 109.736V129.176H301.394V109.736H297.394ZM297.394 129.176C297.394 129.842 297.208 130.19 296.972 130.426L299.801 133.254C300.908 132.146 301.394 130.718 301.394 129.176H297.394ZM296.972 130.426C296.736 130.662 296.389 130.848 295.722 130.848V134.848C297.264 134.848 298.693 134.362 299.801 133.254L296.972 130.426ZM295.722 130.848C295.133 130.848 294.744 130.678 294.423 130.378L291.694 133.302C292.812 134.346 294.2 134.848 295.722 134.848V130.848ZM294.473 130.426C294.236 130.19 294.05 129.842 294.05 129.176H290.05C290.05 130.718 290.536 132.146 291.644 133.254L294.473 130.426ZM294.05 129.176V96.344H290.05V129.176H294.05ZM294.05 96.344C294.05 92.9211 294.836 89.8835 296.379 87.1843L292.906 85.1997C290.992 88.5485 290.05 92.2789 290.05 96.344H294.05ZM296.374 87.193C297.981 84.4133 300.11 82.2687 302.775 80.7216L300.766 77.2624C297.479 79.1713 294.856 81.8267 292.911 85.191L296.374 87.193ZM302.783 80.7166C305.483 79.1308 308.49 78.328 311.85 78.328V74.328C307.818 74.328 304.105 75.3012 300.757 77.2674L302.783 80.7166ZM311.85 111.808C314.586 111.808 317.106 111.147 319.359 109.795L317.301 106.365C315.715 107.317 313.915 107.808 311.85 107.808V111.808ZM319.372 109.788C321.638 108.406 323.42 106.541 324.693 104.217L321.184 102.295C320.249 104.003 318.959 105.354 317.289 106.372L319.372 109.788ZM324.685 104.231C326.016 101.846 326.666 99.2024 326.666 96.344H322.666C322.666 98.5736 322.165 100.538 321.192 102.281L324.685 104.231ZM326.666 96.344C326.666 93.4856 326.016 90.8418 324.685 88.4573L321.192 90.4067C322.165 92.1502 322.666 94.1144 322.666 96.344H326.666ZM324.702 88.4887C323.429 86.1084 321.636 84.2255 319.341 82.882L317.32 86.334C318.961 87.2945 320.24 88.6276 321.175 90.3753L324.702 88.4887ZM319.39 82.912C317.133 81.5012 314.602 80.808 311.85 80.808V84.808C313.899 84.808 315.688 85.3148 317.27 86.304L319.39 82.912ZM311.85 80.808C309.099 80.808 306.552 81.5011 304.257 82.9004L306.34 86.3156C307.981 85.3149 309.802 84.808 311.85 84.808V80.808ZM304.269 82.893C302.025 84.2397 300.265 86.1209 298.999 88.4887L302.526 90.3753C303.467 88.6151 304.732 87.2803 306.327 86.323L304.269 82.893ZM298.999 88.4887C297.726 90.8676 297.106 93.5002 297.106 96.344H301.106C301.106 94.0998 301.59 92.1244 302.526 90.3753L298.999 88.4887ZM297.106 96.344C297.106 99.1878 297.726 101.82 298.999 104.199L302.526 102.313C301.59 100.564 301.106 98.5882 301.106 96.344H297.106ZM299.008 104.217C300.274 106.528 302.023 108.392 304.238 109.776L306.358 106.384C304.733 105.368 303.459 104.016 302.517 102.295L299.008 104.217ZM304.288 109.806C306.579 111.147 309.115 111.808 311.85 111.808V107.808C309.786 107.808 307.954 107.317 306.309 106.354L304.288 109.806ZM377.091 98L378.448 99.4696L378.477 99.4425L378.506 99.4142L377.091 98ZM347.355 98.864V96.864H345.016L345.38 99.1745L347.355 98.864ZM351.891 107L350.617 108.541L350.624 108.547L350.631 108.553L351.891 107ZM365.643 109.304L365.011 107.407L365.002 107.41L364.993 107.413L365.643 109.304ZM369.531 107.36L370.743 108.951L370.755 108.942L370.767 108.933L369.531 107.36ZM374.067 107.288L372.722 108.768L372.754 108.797L372.787 108.824L374.067 107.288ZM374.211 111.896L373.011 110.296L372.989 110.313L372.968 110.33L374.211 111.896ZM368.091 115.064L367.459 113.167L367.448 113.17L368.091 115.064ZM350.595 113.768L349.626 115.518L349.637 115.523L349.647 115.529L350.595 113.768ZM343.251 106.64L341.515 107.632L341.521 107.643L341.527 107.653L343.251 106.64ZM343.107 86.048L341.353 85.0884L341.347 85.0981L343.107 86.048ZM350.019 78.92L351.015 80.6548L351.024 80.6496L350.019 78.92ZM369.675 78.776L370.713 77.0664L369.675 78.776ZM375.867 85.616L374.073 86.4986L375.867 85.616ZM351.531 85.4L350.219 83.8908L350.211 83.8979L350.203 83.9052L351.531 85.4ZM347.427 93.104L345.459 92.7514L345.037 95.104H347.427V93.104ZM371.403 93.104V95.104H373.69L373.386 92.8377L371.403 93.104ZM367.803 85.4L366.407 86.8316L367.803 85.4ZM376.027 95.696C376.027 96.0974 375.912 96.3507 375.677 96.5858L378.506 99.4142C379.518 98.4013 380.027 97.1186 380.027 95.696H376.027ZM375.735 96.5304C375.529 96.7203 375.243 96.864 374.715 96.864V100.864C376.107 100.864 377.406 100.432 378.448 99.4696L375.735 96.5304ZM374.715 96.864H347.355V100.864H374.715V96.864ZM345.38 99.1745C345.979 102.99 347.725 106.15 350.617 108.541L353.166 105.459C351.066 103.722 349.787 101.458 349.331 98.5535L345.38 99.1745ZM350.631 108.553C353.572 110.939 357.128 112.096 361.179 112.096V108.096C357.935 108.096 355.298 107.189 353.151 105.447L350.631 108.553ZM361.179 112.096C362.867 112.096 364.575 111.786 366.293 111.195L364.993 107.413C363.64 107.878 362.372 108.096 361.179 108.096V112.096ZM366.276 111.201C368.006 110.625 369.515 109.887 370.743 108.951L368.319 105.769C367.532 106.369 366.448 106.927 365.011 107.407L366.276 111.201ZM370.767 108.933C371.062 108.701 371.411 108.568 371.907 108.568V104.568C370.579 104.568 369.345 104.963 368.296 105.787L370.767 108.933ZM371.907 108.568C372.465 108.568 372.656 108.708 372.722 108.768L375.413 105.808C374.423 104.908 373.174 104.568 371.907 104.568V108.568ZM372.787 108.824C373.311 109.261 373.363 109.554 373.363 109.736H377.363C377.363 108.094 376.551 106.755 375.348 105.752L372.787 108.824ZM373.363 109.736C373.363 109.894 373.34 110.049 373.011 110.296L375.411 113.496C376.619 112.591 377.363 111.306 377.363 109.736H373.363ZM372.968 110.33C371.556 111.451 369.736 112.408 367.459 113.167L368.724 116.961C371.342 116.088 373.602 114.933 375.455 113.462L372.968 110.33ZM367.448 113.17C365.225 113.926 363.139 114.288 361.179 114.288V118.288C363.636 118.288 366.158 117.834 368.735 116.958L367.448 113.17ZM361.179 114.288C357.537 114.288 354.341 113.513 351.544 112.007L349.647 115.529C353.09 117.383 356.95 118.288 361.179 118.288V114.288ZM351.564 112.018C348.752 110.461 346.567 108.337 344.976 105.627L341.527 107.653C343.487 110.991 346.199 113.619 349.626 115.518L351.564 112.018ZM344.988 105.648C343.45 102.956 342.659 99.8725 342.659 96.344H338.659C338.659 100.495 339.597 104.276 341.515 107.632L344.988 105.648ZM342.659 96.344C342.659 92.796 343.411 89.6971 344.867 86.9979L341.347 85.0981C339.54 88.4469 338.659 92.212 338.659 96.344H342.659ZM344.862 87.0076C346.372 84.2464 348.419 82.1442 351.015 80.6547L349.024 77.1853C345.764 79.0557 343.203 81.7056 341.353 85.0884L344.862 87.0076ZM351.024 80.6496C353.668 79.1141 356.676 78.328 360.099 78.328V74.328C356.035 74.328 352.323 75.2699 349.015 77.1904L351.024 80.6496ZM360.099 78.328C363.494 78.328 366.313 79.0746 368.637 80.4856L370.713 77.0664C367.661 75.2134 364.096 74.328 360.099 74.328V78.328ZM368.637 80.4856C370.987 81.912 372.794 83.8992 374.073 86.4986L377.662 84.7334C376.06 81.4768 373.74 78.904 370.713 77.0664L368.637 80.4856ZM374.073 86.4986C375.357 89.1108 376.027 92.1605 376.027 95.696H380.027C380.027 91.6475 379.257 87.9772 377.662 84.7334L374.073 86.4986ZM360.099 80.52C356.213 80.52 352.86 81.5944 350.219 83.8908L352.844 86.9092C354.619 85.3656 356.978 84.52 360.099 84.52V80.52ZM350.203 83.9052C347.664 86.1619 346.103 89.1544 345.459 92.7514L349.396 93.4566C349.904 90.6216 351.079 88.4781 352.86 86.8948L350.203 83.9052ZM347.427 95.104H371.403V91.104H347.427V95.104ZM373.386 92.8377C372.905 89.2617 371.543 86.2543 369.2 83.9684L366.407 86.8316C368 88.3857 369.037 90.5143 369.421 93.3703L373.386 92.8377ZM369.2 83.9684C366.801 81.6282 363.703 80.52 360.099 80.52V84.52C362.831 84.52 364.869 85.3318 366.407 86.8316L369.2 83.9684ZM417.596 82.808L416.084 84.1179L416.1 84.1358L416.116 84.1533L417.596 82.808ZM416.732 87.344L415.605 85.6915L415.595 85.6985L415.585 85.7055L416.732 87.344ZM412.268 86.552L413.763 85.2233L413.749 85.2081L413.735 85.1932L412.268 86.552ZM408.308 83.744L407.49 85.569L407.527 85.5858L407.565 85.601L408.308 83.744ZM394.484 86.552L395.94 87.9227L395.947 87.9157L395.953 87.9086L394.484 86.552ZM392.612 103.328L390.831 104.239L390.844 104.264L390.858 104.289L392.612 103.328ZM397.148 108.08L396.119 109.795L396.128 109.801L396.137 109.806L397.148 108.08ZM411.764 107.288L410.577 105.678L410.529 105.713L410.483 105.752L411.764 107.288ZM416.3 106.928L417.588 105.398L417.545 105.362L417.5 105.328L416.3 106.928ZM416.804 111.464L418.166 112.928L418.193 112.904L418.218 112.878L416.804 111.464ZM393.62 113.696L394.612 111.96L393.62 113.696ZM386.492 106.568L384.737 107.528L384.746 107.544L384.755 107.56L386.492 106.568ZM386.42 86.048L384.665 85.0884L384.66 85.0981L386.42 86.048ZM393.404 78.92L394.387 80.6616L394.398 80.6557L394.408 80.6496L393.404 78.92ZM403.484 78.328C408.562 78.328 412.716 80.2315 416.084 84.1179L419.107 81.4981C414.987 76.7445 409.734 74.328 403.484 74.328V78.328ZM416.116 84.1533C416.258 84.3095 416.316 84.4526 416.316 84.68H420.316C420.316 83.4674 419.894 82.3625 419.076 81.4627L416.116 84.1533ZM416.316 84.68C416.316 84.9304 416.246 85.2547 415.605 85.6915L417.858 88.9965C419.33 87.9933 420.316 86.5416 420.316 84.68H416.316ZM415.585 85.7055C415.463 85.7906 415.318 85.848 415.076 85.848V89.848C416.082 89.848 417.04 89.5694 417.879 88.9825L415.585 85.7055ZM415.076 85.848C414.573 85.848 414.171 85.6831 413.763 85.2233L410.773 87.8807C411.9 89.1489 413.371 89.848 415.076 89.848V85.848ZM413.735 85.1932C412.362 83.7097 410.802 82.5876 409.051 81.887L407.565 85.601C408.694 86.0524 409.774 86.8023 410.8 87.9108L413.735 85.1932ZM409.126 81.919C407.431 81.1593 405.536 80.808 403.484 80.808V84.808C405.08 84.808 406.4 85.0807 407.49 85.569L409.126 81.919ZM403.484 80.808C399.285 80.808 395.733 82.2506 393.014 85.1954L395.953 87.9086C397.843 85.8614 400.291 84.808 403.484 84.808V80.808ZM393.027 85.1813C390.303 88.0763 389.028 91.8696 389.028 96.344H393.028C393.028 92.6584 394.057 89.9237 395.94 87.9227L393.027 85.1813ZM389.028 96.344C389.028 99.2149 389.615 101.861 390.831 104.239L394.392 102.417C393.497 100.667 393.028 98.6571 393.028 96.344H389.028ZM390.858 104.289C392.127 106.607 393.886 108.455 396.119 109.795L398.177 106.365C396.57 105.401 395.304 104.081 394.366 102.367L390.858 104.289ZM396.137 109.806C398.44 111.154 401.027 111.808 403.844 111.808V107.808C401.668 107.808 399.791 107.31 398.158 106.354L396.137 109.806ZM403.844 111.808C407.458 111.808 410.588 110.871 413.044 108.824L410.483 105.752C408.908 107.065 406.757 107.808 403.844 107.808V111.808ZM412.95 108.898C413.625 108.401 414.106 108.28 414.428 108.28V104.28C413.021 104.28 411.727 104.831 410.577 105.678L412.95 108.898ZM414.428 108.28C414.635 108.28 414.844 108.336 415.1 108.528L417.5 105.328C416.604 104.656 415.564 104.28 414.428 104.28V108.28ZM415.012 108.458C415.591 108.946 415.668 109.289 415.668 109.52H419.668C419.668 107.831 418.832 106.446 417.588 105.398L415.012 108.458ZM415.668 109.52C415.668 109.638 415.644 109.795 415.39 110.05L418.218 112.878C419.115 111.981 419.668 110.842 419.668 109.52H415.668ZM415.441 110C412.393 112.836 408.576 114.288 403.844 114.288V118.288C409.479 118.288 414.303 116.524 418.166 112.928L415.441 110ZM403.844 114.288C400.368 114.288 397.307 113.5 394.612 111.96L392.628 115.432C395.98 117.348 399.736 118.288 403.844 118.288V114.288ZM394.612 111.96C391.898 110.409 389.779 108.29 388.228 105.576L384.755 107.56C386.661 110.894 389.293 113.527 392.628 115.432L394.612 111.96ZM388.247 105.608C386.739 102.851 385.972 99.7766 385.972 96.344H381.972C381.972 100.399 382.885 104.141 384.737 107.528L388.247 105.608ZM385.972 96.344C385.972 92.796 386.723 89.6971 388.18 86.9979L384.66 85.0981C382.852 88.4469 381.972 92.212 381.972 96.344H385.972ZM388.175 87.0076C389.68 84.2547 391.744 82.1534 394.387 80.6616L392.421 77.1783C389.111 79.0466 386.52 81.6973 384.665 85.0884L388.175 87.0076ZM394.408 80.6496C397.053 79.1141 400.061 78.328 403.484 78.328V74.328C399.419 74.328 395.707 75.2699 392.4 77.1904L394.408 80.6496ZM506.196 114.92L504.828 113.461L504.804 113.483L504.782 113.506L506.196 114.92ZM499.86 76.472H501.86L498.064 75.5907L499.86 76.472ZM482.436 111.968L484.11 113.062L484.177 112.96L484.231 112.849L482.436 111.968ZM475.74 111.608L477.54 110.737L477.535 110.726L477.529 110.715L475.74 111.608ZM458.532 77.12L460.321 76.2271L456.532 77.12H458.532ZM452.124 114.92L450.71 116.334L452.124 114.92ZM452.124 60.848L450.71 59.4338V59.4338L452.124 60.848ZM458.1 61.784L459.889 60.8908L459.864 60.8405L459.836 60.7917L458.1 61.784ZM479.484 104.624L477.694 105.517L479.508 109.151L481.283 105.498L479.484 104.624ZM500.292 61.784L498.555 60.7917L498.522 60.8499L498.493 60.9102L500.292 61.784ZM503.604 61.768C504.151 61.768 504.524 61.9325 504.854 62.2622L507.682 59.4338C506.572 58.3235 505.168 57.768 503.604 57.768V61.768ZM504.854 62.2622C505.183 62.5919 505.348 62.9645 505.348 63.512H509.348C509.348 61.9475 508.792 60.5441 507.682 59.4338L504.854 62.2622ZM505.348 63.512V112.256H509.348V63.512H505.348ZM505.348 112.256C505.348 112.761 505.191 113.12 504.828 113.461L507.564 116.379C508.736 115.28 509.348 113.863 509.348 112.256H505.348ZM504.782 113.506C504.432 113.855 504.075 114 503.604 114V118C505.148 118 506.519 117.425 507.61 116.334L504.782 113.506ZM503.604 114C503.056 114 502.684 113.835 502.354 113.506L499.526 116.334C500.636 117.445 502.039 118 503.604 118V114ZM502.354 113.506C502.024 113.176 501.86 112.804 501.86 112.256H497.86C497.86 113.82 498.415 115.224 499.526 116.334L502.354 113.506ZM501.86 112.256V76.472H497.86V112.256H501.86ZM498.064 75.5907L480.64 111.087L484.231 112.849L501.655 77.3533L498.064 75.5907ZM480.762 110.874C480.267 111.63 479.782 111.84 479.196 111.84V115.84C481.298 115.84 482.972 114.802 484.11 113.062L480.762 110.874ZM479.196 111.84C478.728 111.84 478.434 111.734 478.229 111.602C478.019 111.466 477.773 111.219 477.54 110.737L473.939 112.479C474.426 113.485 475.117 114.354 476.059 114.962C477.006 115.574 478.08 115.84 479.196 115.84V111.84ZM477.529 110.715L460.321 76.2271L456.742 78.0129L473.95 112.501L477.529 110.715ZM456.532 77.12V112.256H460.532V77.12H456.532ZM456.532 112.256C456.532 112.804 456.367 113.176 456.038 113.506L458.866 116.334C459.976 115.224 460.532 113.82 460.532 112.256H456.532ZM456.038 113.506C455.708 113.835 455.335 114 454.788 114V118C456.352 118 457.756 117.445 458.866 116.334L456.038 113.506ZM454.788 114C454.24 114 453.868 113.835 453.538 113.506L450.71 116.334C451.82 117.445 453.223 118 454.788 118V114ZM453.538 113.506C453.208 113.176 453.044 112.804 453.044 112.256H449.044C449.044 113.82 449.599 115.224 450.71 116.334L453.538 113.506ZM453.044 112.256V63.512H449.044V112.256H453.044ZM453.044 63.512C453.044 62.9645 453.208 62.5919 453.538 62.2622L450.71 59.4338C449.599 60.5441 449.044 61.9475 449.044 63.512H453.044ZM453.538 62.2622C453.868 61.9325 454.24 61.768 454.788 61.768V57.768C453.223 57.768 451.82 58.3235 450.71 59.4338L453.538 62.2622ZM454.788 61.768C455.447 61.768 455.919 61.9983 456.363 62.7763L459.836 60.7917C458.745 58.8817 457.009 57.768 454.788 57.768V61.768ZM456.31 62.6772L477.694 105.517L481.273 103.731L459.889 60.8908L456.31 62.6772ZM481.283 105.498L502.091 62.6578L498.493 60.9102L477.685 103.75L481.283 105.498ZM502.028 62.7763C502.473 61.9983 502.945 61.768 503.604 61.768V57.768C501.383 57.768 499.647 58.8817 498.555 60.7917L502.028 62.7763ZM548.922 78.992L547.897 80.7094L547.913 80.7191L547.93 80.7285L548.922 78.992ZM556.05 86.192L554.307 87.1725L554.316 87.1888L554.326 87.2048L556.05 86.192ZM557.634 115.064L559.048 116.478L557.634 115.064ZM552.378 115.064L550.916 116.429L550.963 116.479L551.013 116.526L552.378 115.064ZM551.37 109.736H553.37V104.111L549.819 108.473L551.37 109.736ZM545.25 114.56L546.116 116.363L545.25 114.56ZM528.042 113.696L526.987 115.395L526.994 115.399L527 115.403L528.042 113.696ZM521.418 106.568L519.641 107.485L519.649 107.501L519.658 107.518L521.418 106.568ZM521.634 86.192L523.371 87.1843L523.377 87.1725L521.634 86.192ZM528.762 78.992L529.754 80.7285L529.763 80.7235L528.762 78.992ZM545.394 108.08L546.423 109.795L546.429 109.791L546.435 109.788L545.394 108.08ZM550.002 103.256L551.756 104.217L551.761 104.208L551.766 104.199L550.002 103.256ZM550.002 89.432L548.239 90.3753V90.3753L550.002 89.432ZM545.394 84.608L544.334 86.304L544.359 86.3194L544.384 86.334L545.394 84.608ZM532.362 84.608L533.391 86.323L533.397 86.3193L533.403 86.3156L532.362 84.608ZM527.754 89.432L526.008 88.4573L525.999 88.4729L525.991 88.4887L527.754 89.432ZM527.754 103.256L525.991 104.199L526.004 104.224L526.018 104.248L527.754 103.256ZM532.362 108.08L531.302 109.776L531.327 109.791L531.352 109.806L532.362 108.08ZM538.914 78.328C542.274 78.328 545.252 79.1307 547.897 80.7094L549.947 77.2746C546.64 75.3013 542.946 74.328 538.914 74.328V78.328ZM547.93 80.7285C550.636 82.2748 552.754 84.4118 554.307 87.1725L557.793 85.2115C555.89 81.8282 553.256 79.1652 549.914 77.2555L547.93 80.7285ZM554.326 87.2048C555.909 89.9009 556.714 92.9311 556.714 96.344H560.714C560.714 92.2689 559.743 88.5311 557.775 85.1792L554.326 87.2048ZM556.714 96.344V112.4H560.714V96.344H556.714ZM556.714 112.4C556.714 112.948 556.55 113.32 556.22 113.65L559.048 116.478C560.159 115.368 560.714 113.964 560.714 112.4H556.714ZM556.22 113.65C555.966 113.903 555.632 114.072 555.042 114.072V118.072C556.564 118.072 557.958 117.569 559.048 116.478L556.22 113.65ZM555.042 114.072C554.453 114.072 554.064 113.902 553.743 113.602L551.013 116.526C552.132 117.57 553.52 118.072 555.042 118.072V114.072ZM553.84 113.699C553.54 113.378 553.37 112.989 553.37 112.4H549.37C549.37 113.923 549.872 115.31 550.916 116.429L553.84 113.699ZM553.37 112.4V109.736H549.37V112.4H553.37ZM549.819 108.473C548.325 110.309 546.519 111.732 544.385 112.757L546.116 116.363C548.781 115.084 551.055 113.291 552.921 110.999L549.819 108.473ZM544.385 112.757C542.267 113.773 539.973 114.288 537.474 114.288V118.288C540.544 118.288 543.433 117.651 546.116 116.363L544.385 112.757ZM537.474 114.288C534.37 114.288 531.589 113.517 529.084 111.989L527 115.403C530.16 117.331 533.667 118.288 537.474 118.288V114.288ZM529.097 111.997C526.624 110.462 524.653 108.351 523.178 105.618L519.658 107.518C521.447 110.833 523.892 113.474 526.987 115.395L529.097 111.997ZM523.196 105.651C521.77 102.886 521.042 99.7962 521.042 96.344H517.042C517.042 100.38 517.898 104.106 519.641 107.485L523.196 105.651ZM521.042 96.344C521.042 92.9211 521.828 89.8835 523.371 87.1843L519.898 85.1997C517.984 88.5485 517.042 92.2789 517.042 96.344H521.042ZM523.377 87.1725C524.93 84.4118 527.048 82.2748 529.754 80.7285L527.77 77.2555C524.428 79.1652 521.794 81.8282 519.891 85.2115L523.377 87.1725ZM529.763 80.7235C532.518 79.1309 535.554 78.328 538.914 78.328V74.328C534.882 74.328 531.15 75.3011 527.761 77.2605L529.763 80.7235ZM538.914 111.808C541.65 111.808 544.17 111.147 546.423 109.795L544.365 106.365C542.778 107.317 540.979 107.808 538.914 107.808V111.808ZM546.435 109.788C548.701 108.406 550.484 106.541 551.756 104.217L548.248 102.295C547.313 104.003 546.023 105.354 544.353 106.372L546.435 109.788ZM551.766 104.199C553.038 101.82 553.658 99.1878 553.658 96.344H549.658C549.658 98.5882 549.174 100.564 548.239 102.313L551.766 104.199ZM553.658 96.344C553.658 93.5002 553.038 90.8676 551.766 88.4887L548.239 90.3753C549.174 92.1244 549.658 94.0998 549.658 96.344H553.658ZM551.766 88.4887C550.492 86.1084 548.7 84.2255 546.404 82.882L544.384 86.334C546.025 87.2945 547.304 88.6276 548.239 90.3753L551.766 88.4887ZM546.454 82.912C544.197 81.5012 541.665 80.808 538.914 80.808V84.808C540.963 84.808 542.751 85.3148 544.334 86.304L546.454 82.912ZM538.914 80.808C536.163 80.808 533.616 81.5011 531.321 82.9004L533.403 86.3156C535.044 85.3149 536.866 84.808 538.914 84.808V80.808ZM531.333 82.893C529.097 84.235 527.32 86.1057 526.008 88.4573L529.501 90.4067C530.492 88.6303 531.788 87.285 533.391 86.323L531.333 82.893ZM525.991 88.4887C524.718 90.8676 524.098 93.5002 524.098 96.344H528.098C528.098 94.0998 528.582 92.1244 529.518 90.3753L525.991 88.4887ZM524.098 96.344C524.098 99.1878 524.718 101.82 525.991 104.199L529.518 102.313C528.582 100.564 528.098 98.5882 528.098 96.344H524.098ZM526.018 104.248C527.329 106.544 529.095 108.396 531.302 109.776L533.422 106.384C531.79 105.364 530.483 104 529.491 102.264L526.018 104.248ZM531.352 109.806C533.643 111.147 536.178 111.808 538.914 111.808V107.808C536.85 107.808 535.018 107.317 533.372 106.354L531.352 109.806ZM588.58 109.808L587.062 111.11L587.087 111.14L587.114 111.169L588.58 109.808ZM588.292 114.992L587.021 113.448L586.998 113.467L586.975 113.487L588.292 114.992ZM577.492 114.2L576.402 115.877L576.426 115.893L576.451 115.908L577.492 114.2ZM572.956 109.16L571.184 110.087L572.956 109.16ZM571.3 84.248H573.3V82.248H571.3V84.248ZM565.54 83.384L564.184 84.8536V84.8536L565.54 83.384ZM565.54 78.92L564.184 77.4504V77.4504L565.54 78.92ZM571.3 78.056V80.056H573.3V78.056H571.3ZM577.492 65.096L578.906 63.6818V63.6818L577.492 65.096ZM578.5 78.056H576.5V80.056H578.5V78.056ZM587.068 78.92L588.425 77.4504V77.4504L587.068 78.92ZM587.068 83.384L588.425 84.8536V84.8536L587.068 83.384ZM578.5 84.248V82.248H576.5V84.248H578.5ZM580.084 106.856L581.635 105.593L580.084 106.856ZM586.42 110.8C586.684 110.8 586.855 110.868 587.062 111.11L590.099 108.506C589.153 107.404 587.884 106.8 586.42 106.8V110.8ZM587.114 111.169C587.343 111.415 587.516 111.767 587.516 112.4H591.516C591.516 110.921 591.065 109.545 590.046 108.447L587.114 111.169ZM587.516 112.4C587.516 112.858 587.376 113.156 587.021 113.448L589.563 116.536C590.84 115.484 591.516 114.054 591.516 112.4H587.516ZM586.975 113.487C586.648 113.773 586.144 114 585.268 114V118C586.888 118 588.4 117.555 589.609 116.497L586.975 113.487ZM585.268 114H583.972V118H585.268V114ZM583.972 114C581.98 114 580.181 113.497 578.533 112.492L576.451 115.908C578.739 117.303 581.261 118 583.972 118V114ZM578.582 112.523C576.962 111.47 575.68 110.054 574.729 108.233L571.184 110.087C572.44 112.49 574.182 114.434 576.402 115.877L578.582 112.523ZM574.729 108.233C573.79 106.437 573.3 104.385 573.3 102.032H569.3C569.3 104.959 569.915 107.659 571.184 110.087L574.729 108.233ZM573.3 102.032V84.248H569.3V102.032H573.3ZM571.3 82.248H567.988V86.248H571.3V82.248ZM567.988 82.248C567.383 82.248 567.084 82.0873 566.897 81.9144L564.184 84.8536C565.244 85.8327 566.577 86.248 567.988 86.248V82.248ZM566.897 81.9144C566.691 81.7244 566.604 81.5409 566.604 81.224H562.604C562.604 82.6351 563.141 83.8916 564.184 84.8536L566.897 81.9144ZM566.604 81.224C566.604 80.7418 566.738 80.5357 566.897 80.3896L564.184 77.4504C563.094 78.4563 562.604 79.7862 562.604 81.224H566.604ZM566.897 80.3896C567.084 80.2167 567.383 80.056 567.988 80.056V76.056C566.577 76.056 565.244 76.4713 564.184 77.4504L566.897 80.3896ZM567.988 80.056H571.3V76.056H567.988V80.056ZM573.3 78.056V67.688H569.3V78.056H573.3ZM573.3 67.688C573.3 67.0978 573.469 66.7638 573.722 66.5102L570.894 63.6818C569.803 64.7722 569.3 66.1662 569.3 67.688H573.3ZM573.722 66.5102C573.976 66.2566 574.31 66.088 574.9 66.088V62.088C573.378 62.088 571.984 62.5914 570.894 63.6818L573.722 66.5102ZM574.9 66.088C575.49 66.088 575.824 66.2566 576.078 66.5102L578.906 63.6818C577.816 62.5914 576.422 62.088 574.9 62.088V66.088ZM576.078 66.5102C576.331 66.7638 576.5 67.0978 576.5 67.688H580.5C580.5 66.1662 579.997 64.7722 578.906 63.6818L576.078 66.5102ZM576.5 67.688V78.056H580.5V67.688H576.5ZM578.5 80.056H584.62V76.056H578.5V80.056ZM584.62 80.056C585.225 80.056 585.524 80.2167 585.712 80.3896L588.425 77.4504C587.364 76.4713 586.031 76.056 584.62 76.056V80.056ZM585.712 80.3896C585.87 80.5357 586.004 80.7418 586.004 81.224H590.004C590.004 79.7862 589.514 78.4563 588.425 77.4504L585.712 80.3896ZM586.004 81.224C586.004 81.5409 585.917 81.7244 585.712 81.9144L588.425 84.8536C589.467 83.8916 590.004 82.6351 590.004 81.224H586.004ZM585.712 81.9144C585.524 82.0873 585.225 82.248 584.62 82.248V86.248C586.031 86.248 587.364 85.8327 588.425 84.8536L585.712 81.9144ZM584.62 82.248H578.5V86.248H584.62V82.248ZM576.5 84.248V102.032H580.5V84.248H576.5ZM576.5 102.032C576.5 104.34 577.144 106.414 578.534 108.119L581.635 105.593C580.912 104.706 580.5 103.564 580.5 102.032H576.5ZM578.534 108.119C579.931 109.834 581.777 110.8 583.972 110.8V106.8C583.095 106.8 582.349 106.47 581.635 105.593L578.534 108.119ZM583.972 110.8H586.42V106.8H583.972V110.8ZM627.055 78.416L626.097 80.1718L627.055 78.416ZM633.246 84.752L631.483 85.6948L631.486 85.7012L631.49 85.7075L633.246 84.752ZM634.398 115.064L632.984 113.65V113.65L634.398 115.064ZM629.143 115.064L627.68 116.429L627.727 116.479L627.778 116.526L629.143 115.064ZM624.966 85.904L623.569 87.3348L623.586 87.3512L623.603 87.3672L624.966 85.904ZM611.142 84.104L610.269 82.305L610.258 82.31L610.248 82.3151L611.142 84.104ZM607.254 87.416L605.608 86.2805L605.595 86.3001L605.582 86.3199L607.254 87.416ZM604.879 115.064L606.293 116.478L606.317 116.454L606.341 116.429L604.879 115.064ZM599.551 115.064L598.088 116.429L598.135 116.479L598.186 116.526L599.551 115.064ZM599.551 60.776L598.186 59.3139L598.161 59.3374L598.136 59.3618L599.551 60.776ZM605.887 81.08H603.887V85.9084L607.301 82.4942L605.887 81.08ZM611.358 77.552L612.079 79.4176L612.098 79.4105L612.116 79.4031L611.358 77.552ZM618.126 78.256C621.139 78.256 623.78 78.9078 626.097 80.1718L628.012 76.6602C625.049 75.0441 621.738 74.256 618.126 74.256V78.256ZM626.097 80.1718C628.377 81.4156 630.169 83.2365 631.483 85.6948L635.01 83.8092C633.348 80.6995 631.012 78.2964 628.012 76.6602L626.097 80.1718ZM631.49 85.7075C632.783 88.0862 633.479 91.0523 633.479 94.688H637.479C637.479 90.5477 636.686 86.8898 635.003 83.7965L631.49 85.7075ZM633.479 94.688V112.4H637.479V94.688H633.479ZM633.479 112.4C633.479 112.948 633.314 113.32 632.984 113.65L635.813 116.478C636.923 115.368 637.479 113.964 637.479 112.4H633.479ZM632.984 113.65C632.731 113.903 632.397 114.072 631.807 114.072V118.072C633.328 118.072 634.722 117.569 635.813 116.478L632.984 113.65ZM631.807 114.072C631.217 114.072 630.829 113.902 630.507 113.602L627.778 116.526C628.896 117.57 630.284 118.072 631.807 118.072V114.072ZM630.605 113.699C630.305 113.378 630.134 112.989 630.134 112.4H626.134C626.134 113.923 626.636 115.31 627.68 116.429L630.605 113.699ZM630.134 112.4V94.688H626.134V112.4H630.134ZM630.134 94.688C630.134 90.4454 628.974 86.9049 626.33 84.4408L623.603 87.3672C625.183 88.8391 626.134 91.1546 626.134 94.688H630.134ZM626.364 84.4732C623.854 82.0219 620.555 80.88 616.686 80.88V84.88C619.73 84.88 621.951 85.7541 623.569 87.3348L626.364 84.4732ZM616.686 80.88C614.392 80.88 612.242 81.3464 610.269 82.305L612.016 85.903C613.403 85.2296 614.949 84.88 616.686 84.88V80.88ZM610.248 82.3151C608.339 83.2698 606.775 84.5891 605.608 86.2805L608.901 88.5515C609.654 87.4589 610.682 86.5702 612.037 85.8929L610.248 82.3151ZM605.582 86.3199C604.448 88.0506 603.887 89.9944 603.887 92.096H607.887C607.887 90.7416 608.237 89.5654 608.927 88.5121L605.582 86.3199ZM603.887 92.096V112.4H607.887V92.096H603.887ZM603.887 112.4C603.887 112.989 603.716 113.378 603.416 113.699L606.341 116.429C607.385 115.31 607.887 113.923 607.887 112.4H603.887ZM603.464 113.65C603.228 113.886 602.881 114.072 602.215 114.072V118.072C603.756 118.072 605.185 117.586 606.293 116.478L603.464 113.65ZM602.215 114.072C601.625 114.072 601.237 113.902 600.915 113.602L598.186 116.526C599.304 117.57 600.692 118.072 602.215 118.072V114.072ZM601.013 113.699C600.713 113.378 600.543 112.989 600.543 112.4H596.543C596.543 113.923 597.044 115.31 598.088 116.429L601.013 113.699ZM600.543 112.4V63.44H596.543V112.4H600.543ZM600.543 63.44C600.543 62.7737 600.729 62.4263 600.965 62.1902L598.136 59.3618C597.028 60.4697 596.543 61.8983 596.543 63.44H600.543ZM600.915 62.2381C601.237 61.9382 601.625 61.768 602.215 61.768V57.768C600.692 57.768 599.304 58.2698 598.186 59.3139L600.915 62.2381ZM602.215 61.768C602.881 61.768 603.228 61.9541 603.464 62.1902L606.293 59.3618C605.185 58.2539 603.756 57.768 602.215 57.768V61.768ZM603.464 62.1902C603.7 62.4263 603.887 62.7737 603.887 63.44H607.887C607.887 61.8983 607.401 60.4697 606.293 59.3618L603.464 62.1902ZM603.887 63.44V81.08H607.887V63.44H603.887ZM607.301 82.4942C608.631 81.1637 610.216 80.1375 612.079 79.4176L610.638 75.6864C608.277 76.5985 606.214 77.9243 604.472 79.6658L607.301 82.4942ZM612.116 79.4031C613.975 78.6425 615.973 78.256 618.126 78.256V74.256C615.48 74.256 612.966 74.7335 610.601 75.7009L612.116 79.4031Z" fill="#4A494A"/>
<path d="M539.38 153.048C538.756 153.048 538.196 152.904 537.7 152.616C537.204 152.32 536.812 151.92 536.524 151.416C536.236 150.912 536.088 150.344 536.08 149.712V144.24C536.08 144.056 536.136 143.908 536.248 143.796C536.368 143.684 536.516 143.628 536.692 143.628C536.876 143.628 537.024 143.684 537.136 143.796C537.248 143.908 537.304 144.056 537.304 144.24V147.48C537.584 147.144 537.92 146.88 538.312 146.688C538.712 146.488 539.148 146.388 539.62 146.388C540.204 146.388 540.728 146.536 541.192 146.832C541.656 147.12 542.02 147.516 542.284 148.02C542.556 148.516 542.692 149.08 542.692 149.712C542.692 150.344 542.544 150.912 542.248 151.416C541.96 151.92 541.568 152.32 541.072 152.616C540.576 152.904 540.012 153.048 539.38 153.048ZM539.38 151.968C539.788 151.968 540.152 151.872 540.472 151.68C540.792 151.48 541.044 151.208 541.228 150.864C541.42 150.52 541.516 150.136 541.516 149.712C541.516 149.28 541.42 148.896 541.228 148.56C541.044 148.224 540.792 147.96 540.472 147.768C540.152 147.568 539.788 147.468 539.38 147.468C538.98 147.468 538.616 147.568 538.288 147.768C537.968 147.96 537.716 148.224 537.532 148.56C537.348 148.896 537.256 149.28 537.256 149.712C537.256 150.136 537.348 150.52 537.532 150.864C537.716 151.208 537.968 151.48 538.288 151.68C538.616 151.872 538.98 151.968 539.38 151.968ZM545.33 155.88C545.25 155.88 545.154 155.856 545.042 155.808C544.69 155.648 544.594 155.396 544.754 155.052L545.954 152.352L543.254 147.228C543.174 147.076 543.162 146.932 543.218 146.796C543.282 146.652 543.39 146.548 543.542 146.484C543.694 146.42 543.838 146.416 543.974 146.472C544.11 146.52 544.214 146.62 544.286 146.772L546.482 151.14L548.414 146.784C548.574 146.448 548.826 146.352 549.17 146.496C549.53 146.648 549.63 146.9 549.47 147.252L545.798 155.508C545.702 155.756 545.546 155.88 545.33 155.88Z" fill="#4A494A"/>
<path d="M537.7 152.616L537.444 153.045L537.449 153.048L537.7 152.616ZM536.524 151.416L536.09 151.664L536.524 151.416ZM536.08 149.712H535.58L535.58 149.718L536.08 149.712ZM536.248 143.796L535.907 143.43L535.901 143.436L535.894 143.442L536.248 143.796ZM537.304 147.48H536.804V148.861L537.688 147.8L537.304 147.48ZM538.312 146.688L538.532 147.137L538.536 147.135L538.312 146.688ZM541.192 146.832L540.923 147.254L540.928 147.257L541.192 146.832ZM542.284 148.02L541.841 148.252L541.846 148.26L542.284 148.02ZM542.248 151.416L541.817 151.163L541.814 151.168L542.248 151.416ZM541.072 152.616L541.323 153.048L541.328 153.045L541.072 152.616ZM540.472 151.68L540.729 152.109L540.737 152.104L540.472 151.68ZM541.228 150.864L540.791 150.62L540.787 150.628L541.228 150.864ZM541.228 148.56L540.789 148.8L540.794 148.808L541.228 148.56ZM540.472 147.768L540.207 148.192L540.215 148.197L540.472 147.768ZM538.288 147.768L538.545 148.197L538.548 148.195L538.288 147.768ZM537.532 148.56L537.971 148.8H537.971L537.532 148.56ZM537.532 150.864L537.091 151.1L537.532 150.864ZM538.288 151.68L538.023 152.104L538.029 152.108L538.035 152.112L538.288 151.68ZM539.38 152.548C538.836 152.548 538.364 152.423 537.951 152.184L537.449 153.048C538.028 153.385 538.676 153.548 539.38 153.548V152.548ZM537.956 152.187C537.535 151.935 537.204 151.598 536.958 151.168L536.09 151.664C536.42 152.242 536.873 152.705 537.444 153.045L537.956 152.187ZM536.958 151.168C536.716 150.744 536.587 150.261 536.58 149.706L535.58 149.718C535.589 150.427 535.756 151.08 536.09 151.664L536.958 151.168ZM536.58 149.712V144.24H535.58V149.712H536.58ZM536.58 144.24C536.58 144.165 536.599 144.153 536.602 144.15L535.894 143.442C535.673 143.663 535.58 143.947 535.58 144.24H536.58ZM536.589 144.162C536.61 144.143 536.633 144.128 536.692 144.128V143.128C536.399 143.128 536.126 143.225 535.907 143.43L536.589 144.162ZM536.692 144.128C536.767 144.128 536.779 144.147 536.782 144.15L537.49 143.442C537.269 143.221 536.985 143.128 536.692 143.128V144.128ZM536.782 144.15C536.785 144.153 536.804 144.165 536.804 144.24H537.804C537.804 143.947 537.711 143.663 537.49 143.442L536.782 144.15ZM536.804 144.24V147.48H537.804V144.24H536.804ZM537.688 147.8C537.923 147.518 538.203 147.298 538.532 147.137L538.092 146.239C537.637 146.462 537.245 146.77 536.92 147.16L537.688 147.8ZM538.536 147.135C538.862 146.972 539.221 146.888 539.62 146.888V145.888C539.075 145.888 538.562 146.004 538.088 146.241L538.536 147.135ZM539.62 146.888C540.115 146.888 540.544 147.012 540.923 147.254L541.461 146.41C540.912 146.06 540.293 145.888 539.62 145.888V146.888ZM540.928 147.257C541.313 147.496 541.617 147.824 541.841 148.252L542.727 147.788C542.423 147.208 541.999 146.744 541.456 146.407L540.928 147.257ZM541.846 148.26C542.073 148.674 542.192 149.154 542.192 149.712H543.192C543.192 149.006 543.039 148.358 542.722 147.78L541.846 148.26ZM542.192 149.712C542.192 150.262 542.064 150.742 541.817 151.163L542.679 151.669C543.024 151.082 543.192 150.426 543.192 149.712H542.192ZM541.814 151.168C541.568 151.598 541.237 151.935 540.816 152.187L541.328 153.045C541.899 152.705 542.352 152.242 542.682 151.664L541.814 151.168ZM540.821 152.184C540.409 152.423 539.933 152.548 539.38 152.548V153.548C540.091 153.548 540.743 153.385 541.323 153.048L540.821 152.184ZM539.38 152.468C539.87 152.468 540.324 152.352 540.729 152.109L540.215 151.251C539.98 151.392 539.706 151.468 539.38 151.468V152.468ZM540.737 152.104C541.134 151.856 541.445 151.518 541.669 151.1L540.787 150.628C540.643 150.898 540.45 151.104 540.207 151.256L540.737 152.104ZM541.665 151.108C541.901 150.684 542.016 150.215 542.016 149.712H541.016C541.016 150.057 540.939 150.356 540.791 150.62L541.665 151.108ZM542.016 149.712C542.016 149.203 541.902 148.732 541.662 148.312L540.794 148.808C540.938 149.06 541.016 149.357 541.016 149.712H542.016ZM541.667 148.32C541.441 147.908 541.127 147.578 540.729 147.339L540.215 148.197C540.457 148.342 540.647 148.54 540.789 148.8L541.667 148.32ZM540.737 147.344C540.331 147.09 539.874 146.968 539.38 146.968V147.968C539.702 147.968 539.973 148.046 540.207 148.192L540.737 147.344ZM539.38 146.968C538.892 146.968 538.437 147.091 538.028 147.341L538.548 148.195C538.795 148.045 539.068 147.968 539.38 147.968V146.968ZM538.031 147.339C537.633 147.578 537.319 147.908 537.093 148.32L537.971 148.8C538.113 148.54 538.303 148.342 538.545 148.197L538.031 147.339ZM537.093 148.32C536.864 148.738 536.756 149.207 536.756 149.712H537.756C537.756 149.353 537.832 149.054 537.971 148.8L537.093 148.32ZM536.756 149.712C536.756 150.211 536.865 150.677 537.091 151.1L537.973 150.628C537.831 150.363 537.756 150.061 537.756 149.712H536.756ZM537.091 151.1C537.315 151.518 537.626 151.856 538.023 152.104L538.553 151.256C538.31 151.104 538.117 150.898 537.973 150.628L537.091 151.1ZM538.035 152.112C538.444 152.351 538.896 152.468 539.38 152.468V151.468C539.064 151.468 538.788 151.393 538.541 151.248L538.035 152.112ZM545.042 155.808L544.835 156.263L544.845 156.268L545.042 155.808ZM544.754 155.052L545.208 155.263L545.211 155.255L544.754 155.052ZM545.954 152.352L546.411 152.555L546.51 152.333L546.397 152.119L545.954 152.352ZM543.254 147.228L542.812 147.461L542.812 147.461L543.254 147.228ZM543.218 146.796L542.761 146.593L542.756 146.606L543.218 146.796ZM543.542 146.484L543.348 146.023L543.348 146.023L543.542 146.484ZM543.974 146.472L543.784 146.934L543.796 146.939L543.808 146.943L543.974 146.472ZM544.286 146.772L543.834 146.986L543.839 146.997L544.286 146.772ZM546.482 151.14L546.035 151.365L546.511 152.309L546.939 151.343L546.482 151.14ZM548.414 146.784L547.963 146.569L547.957 146.581L548.414 146.784ZM549.17 146.496L549.365 146.035L549.363 146.035L549.17 146.496ZM549.47 147.252L549.015 147.045L549.013 147.049L549.47 147.252ZM545.798 155.508L545.341 155.305L545.336 155.316L545.332 155.328L545.798 155.508ZM545.33 155.38C545.339 155.38 545.337 155.381 545.319 155.377C545.302 155.373 545.276 155.364 545.239 155.348L544.845 156.268C544.99 156.33 545.157 156.38 545.33 156.38V155.38ZM545.249 155.353C545.197 155.329 545.173 155.31 545.165 155.303C545.158 155.297 545.166 155.303 545.173 155.321C545.181 155.34 545.179 155.351 545.179 155.346C545.18 155.338 545.185 155.312 545.208 155.263L544.301 154.841C544.187 155.085 544.126 155.381 544.239 155.677C544.351 155.971 544.592 156.152 544.835 156.263L545.249 155.353ZM545.211 155.255L546.411 152.555L545.497 152.149L544.297 154.849L545.211 155.255ZM546.397 152.119L543.697 146.995L542.812 147.461L545.512 152.585L546.397 152.119ZM543.697 146.995C543.682 146.968 543.683 146.958 543.683 146.964C543.684 146.967 543.684 146.972 543.683 146.977C543.682 146.982 543.681 146.986 543.681 146.986L542.756 146.606C542.634 146.902 542.676 147.202 542.812 147.461L543.697 146.995ZM543.675 146.999C543.685 146.977 543.695 146.962 543.736 146.945L543.348 146.023C543.085 146.134 542.88 146.327 542.761 146.593L543.675 146.999ZM543.736 146.945C543.763 146.933 543.776 146.933 543.778 146.933C543.779 146.933 543.779 146.933 543.779 146.933C543.779 146.933 543.779 146.933 543.779 146.933C543.779 146.933 543.78 146.933 543.78 146.933C543.781 146.933 543.782 146.934 543.784 146.934L544.165 146.01C543.89 145.897 543.607 145.914 543.348 146.023L543.736 146.945ZM543.808 146.943C543.809 146.944 543.809 146.944 543.808 146.943C543.807 146.943 543.807 146.942 543.808 146.943C543.809 146.945 543.82 146.956 543.834 146.986L544.738 146.558C544.619 146.307 544.423 146.1 544.141 146.001L543.808 146.943ZM543.839 146.997L546.035 151.365L546.929 150.915L544.733 146.547L543.839 146.997ZM546.939 151.343L548.871 146.987L547.957 146.581L546.025 150.937L546.939 151.343ZM548.866 146.999C548.888 146.952 548.906 146.93 548.913 146.922C548.919 146.916 548.915 146.922 548.901 146.927C548.887 146.932 548.881 146.931 548.889 146.931C548.9 146.932 548.928 146.937 548.977 146.957L549.363 146.035C549.119 145.932 548.831 145.884 548.545 145.993C548.26 146.102 548.077 146.33 547.963 146.569L548.866 146.999ZM548.976 146.957C549.029 146.979 549.054 146.998 549.062 147.004C549.067 147.01 549.058 147.003 549.05 146.983C549.043 146.964 549.044 146.952 549.044 146.957C549.043 146.966 549.038 146.994 549.015 147.045L549.925 147.459C550.037 147.213 550.098 146.913 549.98 146.615C549.862 146.318 549.613 146.14 549.365 146.035L548.976 146.957ZM549.013 147.049L545.341 155.305L546.255 155.711L549.927 147.455L549.013 147.049ZM545.332 155.328C545.306 155.395 545.287 155.404 545.298 155.396C545.304 155.391 545.313 155.386 545.323 155.382C545.332 155.379 545.336 155.38 545.33 155.38V156.38C545.541 156.38 545.746 156.317 545.92 156.178C546.087 156.046 546.195 155.869 546.265 155.688L545.332 155.328Z" fill="#4A494A"/>
<path d="M0 11C0 4.92487 4.92487 0 11 0H106C112.075 0 117 4.92487 117 11V151C117 157.075 112.075 162 106 162H11C4.92487 162 0 157.075 0 151V11Z" fill="#FC4C02"/>
<rect x="95" y="50" width="117" height="162" rx="11" fill="#4A494A"/>
<circle cx="143" cy="24" r="12" fill="#FC4C02"/>
<circle cx="69" cy="188" r="12" fill="#4A494A"/>
<path d="M106 61V151" stroke="white" stroke-width="22" stroke-linecap="round"/>
<path d="M61 106L151 106" stroke="white" stroke-width="22" stroke-linecap="round"/>
</svg>
