<svg width="592" height="212" viewBox="0 0 592 212" fill="none" xmlns="http://www.w3.org/2000/svg">
<path d="M256.808 131.152C254.072 131.152 251.456 130.624 248.96 129.568C246.464 128.464 244.256 126.856 242.336 124.744C240.464 122.632 239.072 120.016 238.16 116.896L245.648 113.872C246.416 116.656 247.76 118.984 249.68 120.856C251.6 122.728 254 123.664 256.88 123.664C258.512 123.664 260.024 123.376 261.416 122.8C262.856 122.224 264.008 121.384 264.872 120.28C265.736 119.128 266.168 117.736 266.168 116.104C266.168 113.848 265.328 112.048 263.648 110.704C261.968 109.312 259.28 107.944 255.584 106.6L252.344 105.448C250.472 104.776 248.576 103.864 246.656 102.712C244.784 101.512 243.224 100 241.976 98.176C240.728 96.304 240.104 94.024 240.104 91.336C240.104 88.792 240.776 86.464 242.12 84.352C243.512 82.192 245.408 80.488 247.808 79.24C250.256 77.944 253.088 77.296 256.304 77.296C259.616 77.296 262.376 77.896 264.584 79.096C266.84 80.248 268.592 81.664 269.84 83.344C271.136 84.976 272.024 86.512 272.504 87.952L265.376 90.976C265.088 90.016 264.56 89.056 263.792 88.096C263.072 87.088 262.088 86.272 260.84 85.648C259.64 84.976 258.152 84.64 256.376 84.64C254.072 84.64 252.08 85.264 250.4 86.512C248.768 87.712 247.952 89.296 247.952 91.264C247.952 93.136 248.72 94.648 250.256 95.8C251.792 96.952 254.024 98.032 256.952 99.04L260.264 100.192C262.472 100.912 264.632 101.896 266.744 103.144C268.904 104.392 270.656 106.048 272 108.112C273.392 110.128 274.088 112.744 274.088 115.96C274.088 118.6 273.56 120.88 272.504 122.8C271.496 124.72 270.128 126.304 268.4 127.552C266.72 128.752 264.848 129.64 262.784 130.216C260.768 130.84 258.776 131.152 256.808 131.152ZM281.662 145.552V93.28H289.006V98.248H289.438C290.398 96.664 291.886 95.248 293.902 94C295.966 92.752 298.414 92.128 301.246 92.128C304.606 92.128 307.606 92.968 310.246 94.648C312.886 96.328 314.974 98.632 316.51 101.56C318.094 104.488 318.886 107.848 318.886 111.64C318.886 115.432 318.094 118.816 316.51 121.792C314.974 124.72 312.886 127.024 310.246 128.704C307.606 130.336 304.606 131.152 301.246 131.152C298.414 131.152 295.966 130.552 293.902 129.352C291.886 128.104 290.398 126.688 289.438 125.104H289.006L289.438 130.216V145.552H281.662ZM300.094 124.024C302.014 124.024 303.814 123.52 305.494 122.512C307.174 121.504 308.542 120.088 309.598 118.264C310.654 116.392 311.182 114.184 311.182 111.64C311.182 109.096 310.654 106.912 309.598 105.088C308.542 103.216 307.174 101.776 305.494 100.768C303.814 99.76 302.014 99.256 300.094 99.256C298.174 99.256 296.374 99.76 294.694 100.768C293.014 101.776 291.646 103.216 290.59 105.088C289.534 106.912 289.006 109.096 289.006 111.64C289.006 114.184 289.534 116.392 290.59 118.264C291.646 120.088 293.014 121.504 294.694 122.512C296.374 123.52 298.174 124.024 300.094 124.024ZM342.812 131.152C339.212 131.152 335.996 130.312 333.164 128.632C330.332 126.952 328.1 124.648 326.468 121.72C324.884 118.792 324.092 115.456 324.092 111.712C324.092 108.208 324.86 104.968 326.396 101.992C327.932 99.016 330.068 96.64 332.804 94.864C335.588 93.04 338.78 92.128 342.38 92.128C346.172 92.128 349.388 92.944 352.028 94.576C354.716 96.208 356.756 98.44 358.148 101.272C359.54 104.104 360.236 107.296 360.236 110.848C360.236 111.376 360.212 111.856 360.164 112.288C360.164 112.72 360.14 113.056 360.092 113.296H331.724C332.108 116.944 333.38 119.68 335.54 121.504C337.748 123.328 340.244 124.24 343.028 124.24C345.524 124.24 347.588 123.688 349.22 122.584C350.852 121.432 352.148 120.016 353.108 118.336L359.516 121.432C357.932 124.312 355.772 126.664 353.036 128.488C350.3 130.264 346.892 131.152 342.812 131.152ZM342.452 98.752C339.86 98.752 337.652 99.544 335.828 101.128C334.004 102.712 332.78 104.824 332.156 107.464H352.532C352.436 106.216 352.028 104.92 351.308 103.576C350.588 102.232 349.484 101.104 347.996 100.192C346.556 99.232 344.708 98.752 342.452 98.752ZM384.794 131.152C381.098 131.152 377.834 130.312 375.002 128.632C372.17 126.952 369.938 124.648 368.306 121.72C366.674 118.744 365.858 115.384 365.858 111.64C365.858 107.896 366.674 104.56 368.306 101.632C369.938 98.656 372.17 96.328 375.002 94.648C377.834 92.968 381.098 92.128 384.794 92.128C388.874 92.128 392.306 93.04 395.09 94.864C397.922 96.688 399.938 99.16 401.138 102.28L394.082 105.16C392.402 101.224 389.258 99.256 384.65 99.256C382.634 99.256 380.786 99.784 379.106 100.84C377.426 101.848 376.082 103.288 375.074 105.16C374.066 106.984 373.562 109.144 373.562 111.64C373.562 114.136 374.066 116.32 375.074 118.192C376.082 120.064 377.426 121.504 379.106 122.512C380.786 123.52 382.634 124.024 384.65 124.024C387.002 124.024 388.994 123.496 390.626 122.44C392.258 121.336 393.53 119.848 394.442 117.976L401.354 121C400.058 123.928 397.994 126.352 395.162 128.272C392.33 130.192 388.874 131.152 384.794 131.152ZM426.121 130V78.448H436.777L451.825 117.688H452.257L467.377 78.448H478.033V130H470.257V100.84L470.689 91.696H470.257L455.209 130H448.945L433.897 91.696H433.465L433.897 100.84V130H426.121ZM498.853 131.152C496.213 131.152 493.861 130.648 491.797 129.64C489.781 128.584 488.173 127.12 486.973 125.248C485.821 123.376 485.245 121.24 485.245 118.84C485.245 116.248 485.917 114.04 487.261 112.216C488.653 110.344 490.501 108.928 492.805 107.968C495.109 107.008 497.653 106.528 500.437 106.528C502.741 106.528 504.757 106.744 506.485 107.176C508.261 107.608 509.605 108.064 510.517 108.544V106.6C510.517 104.2 509.653 102.28 507.925 100.84C506.197 99.4 503.965 98.68 501.229 98.68C499.357 98.68 497.581 99.112 495.901 99.976C494.221 100.792 492.877 101.92 491.869 103.36L486.541 99.256C488.125 97.048 490.213 95.32 492.805 94.072C495.445 92.776 498.325 92.128 501.445 92.128C506.773 92.128 510.877 93.448 513.757 96.088C516.637 98.68 518.077 102.328 518.077 107.032V130H510.517V125.464H510.085C509.125 126.952 507.685 128.272 505.765 129.424C503.845 130.576 501.541 131.152 498.853 131.152ZM500.221 124.816C502.237 124.816 504.013 124.336 505.549 123.376C507.085 122.416 508.285 121.168 509.149 119.632C510.061 118.048 510.517 116.344 510.517 114.52C509.413 113.896 508.117 113.392 506.629 113.008C505.141 112.576 503.557 112.36 501.877 112.36C498.709 112.36 496.453 113.008 495.109 114.304C493.765 115.552 493.093 117.088 493.093 118.912C493.093 120.64 493.741 122.056 495.037 123.16C496.333 124.264 498.061 124.816 500.221 124.816ZM540.982 130.576C537.574 130.576 534.862 129.592 532.846 127.624C530.83 125.608 529.822 122.848 529.822 119.344V100.048H523.414V93.28H529.822V82.912H537.598V93.28H546.598V100.048H537.598V117.688C537.598 119.512 537.958 120.904 538.678 121.864C539.446 122.824 540.718 123.304 542.494 123.304C543.406 123.304 544.174 123.184 544.798 122.944C545.47 122.704 546.142 122.368 546.814 121.936V129.496C545.998 129.832 545.134 130.096 544.222 130.288C543.31 130.48 542.23 130.576 540.982 130.576ZM554.481 130V78.448H562.257V92.56L561.825 98.32H562.257C563.265 96.544 564.801 95.08 566.865 93.928C568.977 92.728 571.305 92.128 573.849 92.128C578.409 92.128 581.841 93.496 584.145 96.232C586.449 98.92 587.601 102.448 587.601 106.816V130H579.897V107.824C579.897 104.848 579.105 102.688 577.521 101.344C575.985 99.952 574.089 99.256 571.833 99.256C569.961 99.256 568.305 99.784 566.865 100.84C565.425 101.896 564.297 103.288 563.481 105.016C562.665 106.696 562.257 108.496 562.257 110.416V130H554.481Z" fill="#5F6368"/>
<path d="M468.468 156.769H469.259L471.515 154.507L471.626 153.545C467.427 149.828 461.02 150.23 457.314 154.441C456.284 155.61 455.538 157.002 455.13 158.508C455.38 158.405 455.659 158.388 455.921 158.461L460.433 157.715C460.433 157.715 460.662 157.333 460.781 157.357C462.788 155.146 466.165 154.888 468.483 156.769H468.468Z" fill="#EA4335"/>
<path d="M474.729 158.508C474.21 156.593 473.146 154.871 471.666 153.555L468.501 156.73C469.837 157.826 470.599 159.477 470.566 161.209V161.773C472.123 161.773 473.384 163.038 473.384 164.599C473.384 166.16 472.123 167.426 470.566 167.426H464.93L464.368 167.998V171.389L464.93 171.953H470.566C474.614 171.984 477.921 168.718 477.952 164.659C477.971 162.193 476.76 159.887 474.729 158.508Z" fill="#4285F4"/>
<path d="M459.286 171.917H464.922V167.392H459.286C458.884 167.392 458.488 167.304 458.122 167.137L457.331 167.384L455.059 169.647L454.862 170.44C456.134 171.406 457.689 171.925 459.286 171.917Z" fill="#34A853"/>
<path d="M459.286 157.238C455.237 157.261 451.977 160.573 452 164.634C452.014 166.901 453.069 169.036 454.862 170.417L458.13 167.139C456.712 166.496 456.081 164.821 456.722 163.399C457.362 161.977 459.032 161.345 460.45 161.987C461.074 162.27 461.574 162.773 461.858 163.399L465.126 160.121C463.737 158.296 461.574 157.229 459.286 157.238Z" fill="#FBBC05"/>
<path d="M492.957 168.758C490.996 168.783 489.111 168.006 487.734 166.606C486.311 165.265 485.517 163.387 485.542 161.429C485.518 159.471 486.313 157.594 487.734 156.252C489.105 154.838 490.991 154.046 492.957 154.061C494.83 154.036 496.635 154.766 497.967 156.086L496.559 157.524C495.595 156.588 494.298 156.075 492.957 156.094C491.55 156.077 490.2 156.654 489.237 157.682C488.237 158.677 487.685 160.04 487.709 161.452C487.696 162.849 488.248 164.192 489.237 165.176C491.275 167.214 494.56 167.253 496.646 165.264C497.268 164.582 497.648 163.713 497.73 162.795H492.981V160.763H499.701C499.766 161.173 499.793 161.587 499.78 162.002C499.865 163.735 499.238 165.428 498.047 166.687C496.721 168.07 494.87 168.823 492.957 168.758ZM508.582 167.407C506.708 169.209 503.751 169.209 501.877 167.407C500.969 166.525 500.474 165.301 500.508 164.034C500.474 162.766 500.971 161.543 501.877 160.66C503.753 158.863 506.707 158.863 508.582 160.66C509.489 161.543 509.986 162.766 509.952 164.034C509.984 165.303 509.484 166.526 508.575 167.407H508.582ZM503.357 166.082C504.325 167.12 505.948 167.173 506.982 166.201C507.023 166.162 507.063 166.123 507.101 166.082C507.629 165.534 507.914 164.796 507.892 164.034C507.916 163.27 507.63 162.527 507.101 161.977C506.105 160.937 504.457 160.901 503.418 161.899C503.392 161.924 503.365 161.951 503.34 161.977C502.81 162.527 502.525 163.27 502.549 164.034C502.529 164.796 502.817 165.535 503.348 166.082H503.357ZM518.887 167.407C517.013 169.209 514.057 169.209 512.182 167.407C511.274 166.525 510.779 165.301 510.813 164.034C510.779 162.766 511.276 161.543 512.182 160.66C514.057 158.858 517.013 158.858 518.887 160.66C519.794 161.543 520.291 162.766 520.257 164.034C520.293 165.301 519.796 166.525 518.887 167.407ZM513.664 166.082C514.631 167.12 516.255 167.173 517.289 166.201C517.33 166.162 517.37 166.123 517.407 166.082C517.936 165.534 518.221 164.796 518.199 164.034C518.222 163.27 517.937 162.527 517.407 161.977C516.412 160.937 514.764 160.901 513.726 161.899C513.7 161.924 513.673 161.951 513.648 161.977C513.119 162.527 512.834 163.27 512.857 164.034C512.837 164.796 513.125 165.535 513.656 166.082H513.664ZM525.662 172.997C524.714 173.027 523.784 172.73 523.027 172.155C522.355 171.648 521.825 170.975 521.491 170.201L523.295 169.447C523.491 169.909 523.798 170.315 524.189 170.63C524.606 170.967 525.131 171.145 525.669 171.13C526.357 171.172 527.03 170.911 527.513 170.415C527.99 169.839 528.225 169.098 528.171 168.351V167.668H528.099C527.487 168.397 526.569 168.793 525.622 168.74C524.421 168.743 523.273 168.243 522.456 167.359C521.572 166.482 521.082 165.281 521.103 164.032C521.081 162.777 521.57 161.568 522.456 160.682C523.271 159.794 524.419 159.29 525.622 159.293C526.125 159.291 526.624 159.404 527.079 159.618C527.473 159.79 527.823 160.048 528.108 160.373H528.18V159.618H530.143V168.073C530.247 169.425 529.792 170.761 528.884 171.766C528.019 172.595 526.859 173.039 525.662 172.997ZM525.806 166.9C526.49 166.915 527.146 166.623 527.594 166.106C528.082 165.545 528.34 164.818 528.314 164.073C528.344 163.315 528.086 162.576 527.594 162.001C527.146 161.482 526.49 161.191 525.806 161.207C525.103 161.193 524.429 161.482 523.954 162.001C523.43 162.556 523.145 163.295 523.162 164.057C523.147 164.813 523.43 165.545 523.954 166.09C524.426 166.614 525.1 166.909 525.806 166.9ZM533.634 154.594V168.472H531.568V154.594H533.634ZM539.301 168.758C538.05 168.79 536.843 168.298 535.969 167.4C535.083 166.509 534.598 165.292 534.631 164.034C534.584 162.773 535.05 161.546 535.921 160.635C536.743 159.766 537.893 159.285 539.086 159.308C539.63 159.302 540.168 159.408 540.669 159.618C541.121 159.801 541.532 160.071 541.88 160.412C542.179 160.701 542.444 161.023 542.671 161.373C542.855 161.668 543.011 161.979 543.138 162.301L543.352 162.841L537.021 165.454C537.413 166.357 538.318 166.926 539.3 166.884C540.249 166.887 541.129 166.389 541.619 165.574L543.202 166.646C542.799 167.226 542.281 167.718 541.682 168.092C540.971 168.542 540.143 168.773 539.301 168.758ZM536.658 163.89L540.869 162.135C540.739 161.826 540.507 161.571 540.211 161.413C539.881 161.226 539.507 161.13 539.127 161.135C538.483 161.152 537.871 161.423 537.426 161.89C536.885 162.409 536.603 163.142 536.658 163.89Z" fill="#5F6368"/>
<path d="M554.174 168.758C550.572 168.82 547.603 165.942 547.541 162.329C547.539 162.241 547.539 162.152 547.542 162.065C547.458 158.452 550.311 155.457 553.911 155.372C553.998 155.371 554.087 155.371 554.174 155.371C555.975 155.314 557.704 156.086 558.868 157.466L557.728 158.577C556.872 157.497 555.554 156.893 554.182 156.949C552.866 156.919 551.593 157.43 550.66 158.361C549.689 159.341 549.17 160.682 549.226 162.062C549.169 163.442 549.689 164.782 550.66 165.762C551.593 166.695 552.866 167.204 554.182 167.175C555.715 167.192 557.171 166.507 558.139 165.317L559.279 166.46C558.683 167.176 557.933 167.748 557.087 168.136C556.174 168.561 555.179 168.773 554.174 168.758Z" fill="#5F6368"/>
<path d="M562.342 168.472H560.703V155.649H562.342V168.472Z" fill="#5F6368"/>
<path d="M565.018 160.754C566.805 158.974 569.69 158.974 571.477 160.754C572.324 161.652 572.781 162.852 572.743 164.088C572.781 165.324 572.324 166.525 571.477 167.423C569.69 169.203 566.805 169.203 565.018 167.423C564.171 166.525 563.714 165.324 563.752 164.088C563.714 162.852 564.169 161.652 565.018 160.754ZM566.236 166.392C567.285 167.503 569.033 167.551 570.142 166.5C570.179 166.465 570.215 166.428 570.249 166.392C570.827 165.77 571.133 164.94 571.097 164.09C571.134 163.24 570.829 162.41 570.249 161.788C569.201 160.677 567.453 160.629 566.344 161.68C566.306 161.715 566.271 161.752 566.236 161.788C565.658 162.41 565.353 163.24 565.389 164.09C565.356 164.939 565.665 165.765 566.244 166.384L566.236 166.392Z" fill="#5F6368"/>
<path d="M581.821 168.472H580.238V167.257H580.192C579.91 167.718 579.511 168.097 579.036 168.353C578.543 168.639 577.983 168.79 577.412 168.789C576.475 168.853 575.56 168.484 574.928 167.789C574.328 167.028 574.027 166.073 574.08 165.106V159.707H575.719V164.804C575.719 166.44 576.439 167.257 577.88 167.257C578.529 167.278 579.148 166.982 579.542 166.464C579.967 165.925 580.193 165.254 580.184 164.567V159.707H581.823V168.472H581.821Z" fill="#5F6368"/>
<path d="M587.386 168.758C586.261 168.761 585.191 168.272 584.457 167.415C583.636 166.506 583.197 165.315 583.229 164.088C583.197 162.862 583.636 161.671 584.457 160.762C585.191 159.907 586.261 159.416 587.386 159.419C588.009 159.41 588.624 159.557 589.174 159.848C589.659 160.091 590.068 160.462 590.361 160.919H590.433L590.361 159.705V155.649H592V168.472H590.417V167.257H590.346C590.053 167.715 589.643 168.086 589.159 168.329C588.613 168.617 588.004 168.765 587.386 168.758ZM587.655 167.257C588.405 167.268 589.123 166.956 589.626 166.4C590.182 165.764 590.467 164.934 590.417 164.088C590.467 163.245 590.182 162.413 589.626 161.777C588.632 160.68 586.94 160.601 585.847 161.599C585.784 161.655 585.725 161.716 585.669 161.777C585.111 162.409 584.826 163.237 584.878 164.079C584.826 164.921 585.111 165.75 585.669 166.381C586.174 166.95 586.898 167.268 587.655 167.257Z" fill="#5F6368"/>
<path d="M0 11C0 4.92487 4.92487 0 11 0H106C112.075 0 117 4.92487 117 11V151C117 157.075 112.075 162 106 162H11C4.92487 162 0 157.075 0 151V11Z" fill="#4285F4"/>
<path d="M176 14H142C135.925 14 131 18.9249 131 25C131 31.0751 135.925 36 142 36H176C182.075 36 187 31.0751 187 25C187 18.9249 182.075 14 176 14Z" fill="#34A853"/>
<path d="M201 50H106C99.9249 50 95 54.9249 95 61V201C95 207.075 99.9249 212 106 212H201C207.075 212 212 207.075 212 201V61C212 54.9249 207.075 50 201 50Z" fill="#EA4335"/>
<path d="M81 187C81 180.925 76.0751 176 70 176C63.9249 176 59 180.925 59 187C59 193.075 63.9249 198 70 198C76.0751 198 81 193.075 81 187Z" fill="#FBBC05"/>
<path d="M106 61V151" stroke="white" stroke-width="22" stroke-linecap="round"/>
<path d="M61 106H151" stroke="white" stroke-width="22" stroke-linecap="round"/>
</svg>
